<svg width="64" height="64" viewBox="0 0 64 64" fill="none" xmlns="http://www.w3.org/2000/svg">
<path d="M31.7037 63.7781C14.2521 63.7781 0.105713 49.6316 0.105713 32.18C0.105713 14.7285 14.2521 0.582031 31.7037 0.582031C49.1553 0.582031 63.3017 14.7285 63.3017 32.18C63.3017 49.6316 49.1553 63.7781 31.7037 63.7781ZM31.7037 57.4585C38.408 57.4585 44.8376 54.7952 49.5783 50.0546C54.3189 45.314 56.9821 38.8843 56.9821 32.18C56.9821 25.4758 54.3189 19.0461 49.5783 14.3055C44.8376 9.56489 38.408 6.90163 31.7037 6.90163C24.9995 6.90163 18.5698 9.56489 13.8292 14.3055C9.08857 19.0461 6.42532 25.4758 6.42532 32.18C6.42532 38.8843 9.08857 45.314 13.8292 50.0546C18.5698 54.7952 24.9995 57.4585 31.7037 57.4585ZM27.3495 20.8522L42.7662 31.1278C42.9396 31.2432 43.0817 31.3996 43.1801 31.5832C43.2784 31.7668 43.3299 31.9718 43.3299 32.18C43.3299 32.3883 43.2784 32.5933 43.1801 32.7769C43.0817 32.9605 42.9396 33.1169 42.7662 33.2323L27.3464 43.5079C27.1562 43.634 26.9355 43.7062 26.7077 43.717C26.4798 43.7277 26.2533 43.6766 26.0521 43.5691C25.851 43.4615 25.6827 43.3015 25.565 43.1061C25.4474 42.9106 25.3849 42.687 25.3841 42.4589V21.9012C25.3845 21.6726 25.447 21.4484 25.5647 21.2524C25.6825 21.0565 25.8512 20.8962 26.0529 20.7885C26.2546 20.6809 26.4817 20.6299 26.71 20.6411C26.9383 20.6524 27.1593 20.7253 27.3495 20.8522Z" fill="white"/>
<path d="M31.7037 63.7781C14.2521 63.7781 0.105713 49.6316 0.105713 32.18C0.105713 14.7285 14.2521 0.582031 31.7037 0.582031C49.1553 0.582031 63.3017 14.7285 63.3017 32.18C63.3017 49.6316 49.1553 63.7781 31.7037 63.7781ZM31.7037 57.4585C38.408 57.4585 44.8376 54.7952 49.5783 50.0546C54.3189 45.314 56.9821 38.8843 56.9821 32.18C56.9821 25.4758 54.3189 19.0461 49.5783 14.3055C44.8376 9.56489 38.408 6.90163 31.7037 6.90163C24.9995 6.90163 18.5698 9.56489 13.8292 14.3055C9.08857 19.0461 6.42532 25.4758 6.42532 32.18C6.42532 38.8843 9.08857 45.314 13.8292 50.0546C18.5698 54.7952 24.9995 57.4585 31.7037 57.4585ZM27.3495 20.8522L42.7662 31.1278C42.9396 31.2432 43.0817 31.3996 43.1801 31.5832C43.2784 31.7668 43.3299 31.9718 43.3299 32.18C43.3299 32.3883 43.2784 32.5933 43.1801 32.7769C43.0817 32.9605 42.9396 33.1169 42.7662 33.2323L27.3464 43.5079C27.1562 43.634 26.9355 43.7062 26.7077 43.717C26.4798 43.7277 26.2533 43.6766 26.0521 43.5691C25.851 43.4615 25.6827 43.3015 25.565 43.1061C25.4474 42.9106 25.3849 42.687 25.3841 42.4589V21.9012C25.3845 21.6726 25.447 21.4484 25.5647 21.2524C25.6825 21.0565 25.8512 20.8962 26.0529 20.7885C26.2546 20.6809 26.4817 20.6299 26.71 20.6411C26.9383 20.6524 27.1593 20.7253 27.3495 20.8522Z" fill="url(#paint0_linear)"/>
<path d="M31.7037 63.7781C14.2521 63.7781 0.105713 49.6316 0.105713 32.18C0.105713 14.7285 14.2521 0.582031 31.7037 0.582031C49.1553 0.582031 63.3017 14.7285 63.3017 32.18C63.3017 49.6316 49.1553 63.7781 31.7037 63.7781ZM31.7037 57.4585C38.408 57.4585 44.8376 54.7952 49.5783 50.0546C54.3189 45.314 56.9821 38.8843 56.9821 32.18C56.9821 25.4758 54.3189 19.0461 49.5783 14.3055C44.8376 9.56489 38.408 6.90163 31.7037 6.90163C24.9995 6.90163 18.5698 9.56489 13.8292 14.3055C9.08857 19.0461 6.42532 25.4758 6.42532 32.18C6.42532 38.8843 9.08857 45.314 13.8292 50.0546C18.5698 54.7952 24.9995 57.4585 31.7037 57.4585ZM27.3495 20.8522L42.7662 31.1278C42.9396 31.2432 43.0817 31.3996 43.1801 31.5832C43.2784 31.7668 43.3299 31.9718 43.3299 32.18C43.3299 32.3883 43.2784 32.5933 43.1801 32.7769C43.0817 32.9605 42.9396 33.1169 42.7662 33.2323L27.3464 43.5079C27.1562 43.634 26.9355 43.7062 26.7077 43.717C26.4798 43.7277 26.2533 43.6766 26.0521 43.5691C25.851 43.4615 25.6827 43.3015 25.565 43.1061C25.4474 42.9106 25.3849 42.687 25.3841 42.4589V21.9012C25.3845 21.6726 25.447 21.4484 25.5647 21.2524C25.6825 21.0565 25.8512 20.8962 26.0529 20.7885C26.2546 20.6809 26.4817 20.6299 26.71 20.6411C26.9383 20.6524 27.1593 20.7253 27.3495 20.8522Z" fill="url(#paint1_linear)"/>
<path d="M31.7037 63.7781C14.2521 63.7781 0.105713 49.6316 0.105713 32.18C0.105713 14.7285 14.2521 0.582031 31.7037 0.582031C49.1553 0.582031 63.3017 14.7285 63.3017 32.18C63.3017 49.6316 49.1553 63.7781 31.7037 63.7781ZM31.7037 57.4585C38.408 57.4585 44.8376 54.7952 49.5783 50.0546C54.3189 45.314 56.9821 38.8843 56.9821 32.18C56.9821 25.4758 54.3189 19.0461 49.5783 14.3055C44.8376 9.56489 38.408 6.90163 31.7037 6.90163C24.9995 6.90163 18.5698 9.56489 13.8292 14.3055C9.08857 19.0461 6.42532 25.4758 6.42532 32.18C6.42532 38.8843 9.08857 45.314 13.8292 50.0546C18.5698 54.7952 24.9995 57.4585 31.7037 57.4585ZM27.3495 20.8522L42.7662 31.1278C42.9396 31.2432 43.0817 31.3996 43.1801 31.5832C43.2784 31.7668 43.3299 31.9718 43.3299 32.18C43.3299 32.3883 43.2784 32.5933 43.1801 32.7769C43.0817 32.9605 42.9396 33.1169 42.7662 33.2323L27.3464 43.5079C27.1562 43.634 26.9355 43.7062 26.7077 43.717C26.4798 43.7277 26.2533 43.6766 26.0521 43.5691C25.851 43.4615 25.6827 43.3015 25.565 43.1061C25.4474 42.9106 25.3849 42.687 25.3841 42.4589V21.9012C25.3845 21.6726 25.447 21.4484 25.5647 21.2524C25.6825 21.0565 25.8512 20.8962 26.0529 20.7885C26.2546 20.6809 26.4817 20.6299 26.71 20.6411C26.9383 20.6524 27.1593 20.7253 27.3495 20.8522Z" fill="url(#paint2_radial)" fill-opacity="0.66"/>
<defs>
<linearGradient id="paint0_linear" x1="-3.05409" y1="-26.7023" x2="60.0738" y2="34.5294" gradientUnits="userSpaceOnUse">
<stop stop-color="#F0C69C"/>
<stop offset="1" stop-color="#C56C51"/>
</linearGradient>
<linearGradient id="paint1_linear" x1="-1.47339" y1="32.18" x2="63.3766" y2="27.9137" gradientUnits="userSpaceOnUse">
<stop stop-color="#CFA453"/>
<stop offset="0.09375" stop-color="#F0AF2D"/>
<stop offset="0.291667" stop-color="#FDC43E"/>
<stop offset="0.539673" stop-color="#FFCD33"/>
<stop offset="0.715721" stop-color="#FDE07E"/>
<stop offset="0.889088" stop-color="#FFED87"/>
<stop offset="1" stop-color="#D2BB74"/>
</linearGradient>
<radialGradient id="paint2_radial" cx="0" cy="0" r="1" gradientUnits="userSpaceOnUse" gradientTransform="translate(31.5921 29.7538) rotate(3.01334) scale(42.9344 61.2066)">
<stop stop-color="#FFFEFD"/>
<stop offset="0.260414" stop-color="#FFF6C4"/>
<stop offset="0.421373" stop-color="#FEF3B4"/>
<stop offset="0.647351" stop-color="#E1C673"/>
<stop offset="0.796239" stop-color="#B6874E"/>
<stop offset="0.930315" stop-color="#684D32"/>
<stop offset="0.978316" stop-color="#E3B87D"/>
</radialGradient>
</defs>
</svg>
