<svg width="41" height="40" viewBox="0 0 41 40" fill="none" xmlns="http://www.w3.org/2000/svg">
<path fill-rule="evenodd" clip-rule="evenodd" d="M28.2448 1.35294H34.3938C36.9378 1.35294 39.0016 3.43465 39.0016 6.00273V12.2031C39.0016 14.7692 36.9378 16.8529 34.3938 16.8529H28.2448C25.6989 16.8529 23.6351 14.7692 23.6351 12.2031V6.00273C23.6351 3.43465 25.6989 1.35294 28.2448 1.35294Z" stroke="white" stroke-width="2" stroke-linecap="round" stroke-linejoin="round"/>
<path fill-rule="evenodd" clip-rule="evenodd" d="M5.96435 1.35294H12.1113C14.6573 1.35294 16.7211 3.43465 16.7211 6.00273V12.2031C16.7211 14.7692 14.6573 16.8529 12.1113 16.8529H5.96435C3.41837 16.8529 1.35458 14.7692 1.35458 12.2031V6.00273C1.35458 3.43465 3.41837 1.35294 5.96435 1.35294Z" stroke="white" stroke-width="2" stroke-linecap="round" stroke-linejoin="round"/>
<path fill-rule="evenodd" clip-rule="evenodd" d="M5.96435 23.5002H12.1113C14.6573 23.5002 16.7211 25.5819 16.7211 28.1519V34.3503C16.7211 36.9184 14.6573 39.0001 12.1113 39.0001H5.96435C3.41837 39.0001 1.35458 36.9184 1.35458 34.3503V28.1519C1.35458 25.5819 3.41837 23.5002 5.96435 23.5002Z" stroke="white" stroke-width="2" stroke-linecap="round" stroke-linejoin="round"/>
<path fill-rule="evenodd" clip-rule="evenodd" d="M28.2448 23.5002H34.3938C36.9378 23.5002 39.0016 25.5819 39.0016 28.1519V34.3503C39.0016 36.9184 36.9378 39.0001 34.3938 39.0001H28.2448C25.6989 39.0001 23.6351 36.9184 23.6351 34.3503V28.1519C23.6351 25.5819 25.6989 23.5002 28.2448 23.5002Z" stroke="white" stroke-width="2" stroke-linecap="round" stroke-linejoin="round"/>
</svg>
