<svg width="31" height="37" viewBox="0 0 31 37" fill="none" xmlns="http://www.w3.org/2000/svg">
<path fill-rule="evenodd" clip-rule="evenodd" d="M28.605 5.39378C29.4061 5.67428 29.9415 6.42961 29.9415 7.27844V19.6956C29.9415 23.1661 28.6801 26.4789 26.4526 29.0456C25.3325 30.3381 23.9153 31.3446 22.4101 32.1586L15.8871 35.6823L9.35312 32.1568C7.84612 31.3428 6.42712 30.3381 5.30512 29.0438C3.07579 26.4771 1.81079 23.1624 1.81079 19.6883V7.27844C1.81079 6.42961 2.34612 5.67428 3.14729 5.39378L15.2143 1.15328C15.6433 1.00294 16.1108 1.00294 16.538 1.15328L28.605 5.39378Z" stroke="white" stroke-width="2" stroke-linecap="round" stroke-linejoin="round"/>
<path d="M11.1102 17.8494L14.5789 21.3199L21.7252 14.1736" stroke="white" stroke-width="2" stroke-linecap="round" stroke-linejoin="round"/>
</svg>
