<svg width="225" height="54" viewBox="0 0 225 54" fill="none" xmlns="http://www.w3.org/2000/svg">
<path d="M32.4064 32.3458L27.0189 26.9599L32.4064 21.5739V10.8021L16.2438 26.9599L32.4064 43.1176V32.3458Z" fill="#0AAEFD"/>
<path d="M0.0507812 0V53.9096H53.9763V0H0.0507812ZM46.2727 46.2082H7.75443V7.70136H46.2727V46.2082Z" fill="#0AAEFD"/>
<path d="M72.3846 17.3258C72.3846 16.8929 72.1832 16.5104 71.7703 16.1882C71.3574 15.8661 70.8338 15.6044 70.1792 15.393C69.5247 15.1816 68.8097 14.96 68.0141 14.7184C67.2186 14.4768 66.4331 14.1748 65.6477 13.8124C64.8622 13.45 64.1472 13.007 63.5027 12.4936C62.8482 11.9802 62.3245 11.2956 61.9116 10.4299C61.4988 9.56409 61.2974 8.56743 61.2974 7.42985C61.2974 5.47682 62.1433 3.76539 63.835 2.28552C65.5268 0.805647 67.702 0.0808105 70.3403 0.0808105C71.4279 0.0808105 72.4551 0.201632 73.4218 0.443244C74.3886 0.684855 75.1841 0.966711 75.7984 1.29893C76.4126 1.63114 76.9564 1.96337 77.4196 2.28552C77.8829 2.61773 78.2051 2.90968 78.3864 3.16135L78.6986 3.49359L74.9323 7.42985C74.8216 7.29897 74.6604 7.12783 74.4389 6.92649C74.2274 6.72515 73.7743 6.44324 73.0895 6.08082C72.4047 5.72847 71.7099 5.54726 71.015 5.54726C70.2799 5.54726 69.6657 5.74862 69.1823 6.16138C68.6888 6.57413 68.4472 7.04727 68.4472 7.59089C68.4472 8.02378 68.6486 8.39629 69.0614 8.71844C69.4743 9.04059 69.998 9.30231 70.6525 9.51372C71.3071 9.72513 72.0221 9.95667 72.7975 10.1983C73.5829 10.4399 74.3684 10.7419 75.1639 11.1043C75.9595 11.4668 76.6845 11.9097 77.329 12.4231C77.9836 12.9366 78.5072 13.6211 78.9201 14.4869C79.333 15.3527 79.5344 16.3493 79.5344 17.4869C79.5344 19.7017 78.6583 21.5541 76.9161 23.0641C75.174 24.5742 72.8579 25.3292 69.9678 25.3292C68.7895 25.3292 67.6516 25.1883 66.564 24.9064C65.4664 24.6245 64.5702 24.2822 63.8653 23.8796C63.1603 23.4769 62.536 23.0843 61.9922 22.6816C61.4484 22.2789 61.0456 21.9366 60.7939 21.6446L60.4313 21.2319L64.1774 17.3158C64.2177 17.3862 64.2983 17.4668 64.4191 17.5876C64.54 17.7084 64.7615 17.8997 65.1039 18.2017C65.4463 18.5037 65.7987 18.7654 66.1814 18.997C66.5641 19.2285 67.0273 19.4299 67.6013 19.601C68.1652 19.7822 68.7392 19.8628 69.3031 19.8628C70.2094 19.8628 70.9546 19.6111 71.5286 19.1178C72.1026 18.6245 72.3846 18.0205 72.3846 17.3258Z" fill="#0054D9"/>
<path d="M95.0729 0.765015H102.072L93.5422 16.1275V24.6544H87.0571V16.1275L78.5277 0.765015H85.5264L90.3097 9.97648L95.0729 0.765015Z" fill="#0054D9"/>
<path d="M119.301 0.765015H125.787V24.6544H120.188L109.926 11.3456V24.6544H103.441V0.765015H109.07L119.301 14.0738V0.765015Z" fill="#0054D9"/>
<path d="M136.37 19.1879H148.656V24.6544H129.885V0.765015H148.313V6.2315H136.36V9.97648H145.574V15.1107H136.36V19.1879H136.37Z" fill="#0054D9"/>
<path d="M151.385 24.6544V0.765015H162.653C165.171 0.765015 167.255 1.55028 168.897 3.12075C170.538 4.69123 171.354 6.63418 171.354 8.95969C171.354 9.91607 171.213 10.8019 170.931 11.6375C170.649 12.4731 170.307 13.1375 169.904 13.651C169.501 14.1644 169.108 14.6073 168.705 14.9697C168.303 15.3322 167.97 15.5738 167.708 15.7148L167.255 15.9664L172.21 24.6644H165.392L161.294 17.1544H157.88V24.6644H151.385V24.6544ZM164.154 10.661C164.627 10.208 164.869 9.63418 164.869 8.94961C164.869 8.26504 164.627 7.70128 164.154 7.24826C163.68 6.79524 163.056 6.57378 162.301 6.57378H157.87V11.3355H162.301C163.056 11.3456 163.68 11.1141 164.154 10.661Z" fill="#0054D9"/>
<path d="M186.54 25.3389C182.834 25.3389 179.682 24.1006 177.094 21.614C174.506 19.1274 173.217 16.1677 173.217 12.7046C173.217 9.25154 174.506 6.28175 177.094 3.79517C179.672 1.30858 182.824 0.0703125 186.54 0.0703125C187.819 0.0703125 189.037 0.241454 190.195 0.57367C191.353 0.905886 192.3 1.30857 193.055 1.77166C193.81 2.23475 194.465 2.70792 195.019 3.17101C195.583 3.6341 195.986 4.03679 196.227 4.369L196.61 4.85221L192.673 8.94954C192.602 8.85894 192.511 8.7482 192.411 8.60726C192.3 8.46632 192.048 8.2247 191.645 7.87235C191.243 7.52 190.83 7.20793 190.397 6.93611C189.964 6.6643 189.39 6.42271 188.685 6.20123C187.98 5.97975 187.265 5.87908 186.54 5.87908C184.586 5.87908 182.955 6.52337 181.656 7.82203C180.357 9.12069 179.702 10.7415 179.702 12.6946C179.702 14.6476 180.357 16.2784 181.656 17.5771C182.955 18.8758 184.586 19.5301 186.54 19.5301C187.366 19.5301 188.111 19.4093 188.785 19.1576C189.46 18.906 189.943 18.6442 190.215 18.3624L190.618 17.9999V15.4328H186.872V11.3355H197.124V20.5469C197.033 20.6778 196.882 20.859 196.67 21.0704C196.459 21.2818 196.016 21.6744 195.351 22.218C194.687 22.7717 193.972 23.255 193.206 23.6778C192.441 24.1006 191.454 24.4832 190.256 24.8154C189.057 25.1677 187.819 25.3389 186.54 25.3389Z" fill="#0054D9"/>
<path d="M213.991 0.765015H220.989L212.46 16.1275V24.6544H205.975V16.1275L197.445 0.765015H204.444L209.227 9.97648L213.991 0.765015Z" fill="#0054D9"/>
<path d="M218.492 24.1005C217.878 23.5166 217.566 22.7817 217.566 21.9159C217.566 21.0502 217.878 20.3253 218.492 19.7314C219.106 19.1475 219.882 18.8455 220.808 18.8455C221.735 18.8455 222.51 19.1374 223.124 19.7314C223.739 20.3153 224.051 21.0502 224.051 21.9159C224.051 22.7817 223.739 23.5065 223.124 24.1005C222.51 24.6844 221.735 24.9864 220.808 24.9864C219.882 24.9864 219.116 24.6944 218.492 24.1005Z" fill="#00ACFF"/>
<path d="M73.9353 29.4563C75.1437 29.4563 76.3118 29.6174 77.4195 29.9295C78.5273 30.2416 79.4537 30.6342 80.1788 31.0872C80.9038 31.5402 81.5483 31.9932 82.0921 32.4362C82.6359 32.8792 83.0387 33.2617 83.2904 33.5839L83.653 34.0469L81.2663 36.4429C81.1958 36.3523 81.1052 36.2315 80.9743 36.0704C80.8434 35.9093 80.5514 35.6174 80.0982 35.1946C79.645 34.7718 79.1516 34.4093 78.628 34.1073C78.1043 33.8053 77.4296 33.5235 76.5837 33.2617C75.7479 33 74.8617 32.8691 73.9252 32.8691C71.448 32.8691 69.3433 33.7248 67.6213 35.4463C65.8993 37.1577 65.0333 39.2617 65.0333 41.7382C65.0333 44.2147 65.8892 46.3188 67.6112 48.0403C69.3232 49.7618 71.4278 50.6175 73.9151 50.6175C74.8517 50.6175 75.7378 50.4866 76.5938 50.2248C77.4498 49.9631 78.1446 49.651 78.7085 49.2785C79.2725 48.906 79.7659 48.5436 80.1888 48.1912C80.6218 47.8288 80.934 47.5268 81.1455 47.2651L81.4073 46.8524L83.804 49.2483C83.7134 49.3792 83.5825 49.5604 83.4012 49.7718C83.2199 49.9832 82.8071 50.3658 82.1827 50.9094C81.5584 51.453 80.8837 51.9362 80.1788 52.3591C79.4739 52.7819 78.5474 53.1644 77.4095 53.4966C76.2716 53.8389 75.1034 54 73.9051 54C70.3302 54 67.3293 52.8121 64.9024 50.4363C62.4855 48.0604 61.2671 45.151 61.2671 41.7181C61.2671 38.2852 62.4755 35.3859 64.9024 33C67.3494 30.6442 70.3503 29.4563 73.9353 29.4563Z" fill="#0054D9"/>
<path d="M87.228 53.6779V29.7886H97.2981C99.5135 29.7886 101.346 30.4932 102.796 31.9027C104.257 33.3121 104.982 35.0537 104.982 37.1376C104.982 38.1141 104.81 39.0302 104.478 39.8759C104.146 40.7215 103.743 41.396 103.28 41.8792C102.817 42.3725 102.343 42.7953 101.88 43.1577C101.417 43.5201 101.014 43.7719 100.682 43.9027L100.198 44.1242L105.666 53.6678H101.568L96.4522 44.4564H90.9841V53.6678H87.228V53.6779ZM100.088 39.9262C100.833 39.1812 101.215 38.245 101.215 37.1275C101.215 36.01 100.843 35.0738 100.088 34.3289C99.3423 33.5738 98.4058 33.2014 97.2981 33.2014H90.9841V41.0436H97.2981C98.4058 41.0436 99.3423 40.6712 100.088 39.9262Z" fill="#0054D9"/>
<path d="M122.201 41.3958L131.416 29.7783H134.668V53.6676H130.922V36.2716L122.201 47.1844L113.501 36.2716V53.6676H109.755V29.7783H112.987L122.201 41.3958Z" fill="#0054D9"/>
</svg>
