<svg width="215" height="65" viewBox="0 0 215 65" fill="none" xmlns="http://www.w3.org/2000/svg">
<path d="M38.7623 51.1485V41.1491L29.9631 32.376L38.7623 23.5807V13.5813L19.9227 32.376L38.7623 51.1485ZM60.5873 48.2836C69.4425 32.7885 64.0198 13.0685 48.4785 4.23965C32.9371 -4.58921 13.1583 0.817371 4.30308 16.3125C-4.55212 31.8075 0.870591 51.5275 16.4119 60.3564C26.0833 65.8521 37.9126 66.0082 47.7293 60.7688L63.226 63.0318L60.5873 48.2836ZM46.3653 53.4338L45.2807 54.058C35.3745 59.877 22.7738 58.2718 14.6453 50.1564C4.77268 40.3242 4.76151 24.3721 14.623 14.5288C24.4845 4.68553 40.4842 4.67443 50.3568 14.5066C58.7089 22.8226 60.1736 35.7872 53.89 45.7419L53.1632 46.8901L53.4092 48.2167L54.5496 54.6154L46.3653 53.4338Z" fill="#00BFA5"/>
<path d="M81.887 30.6817C79.6061 30.6817 77.7166 30.2024 76.2183 29.2437C74.7201 28.285 73.6691 26.9807 73.0765 25.342L77.7948 22.6109C78.5999 24.5171 80.0086 25.4646 82.0435 25.4646C83.7318 25.4646 84.5704 24.9853 84.5704 24.0266C84.5704 23.3912 84.0897 22.8784 83.1169 22.4883C82.7032 22.321 81.7976 22.0424 80.4111 21.6634C78.4433 21.0948 76.878 20.2811 75.7264 19.2555C74.5748 18.2188 74.0045 16.7808 74.0045 14.9414C74.0045 12.9572 74.7201 11.3407 76.1513 10.1145C77.5824 8.88829 79.3602 8.27515 81.4957 8.27515C83.307 8.27515 84.9058 8.69876 86.3034 9.53482C87.701 10.3709 88.7744 11.5972 89.5123 13.1912L84.8947 15.8889C84.2126 14.2948 83.0946 13.4922 81.5404 13.4922C80.8808 13.4922 80.3888 13.626 80.0422 13.8936C79.7068 14.1611 79.5279 14.4955 79.5279 14.9079C79.5279 15.3761 79.7739 15.7775 80.2882 16.1119C80.7913 16.4352 81.7752 16.8141 83.2287 17.2489C84.2797 17.561 85.1183 17.8397 85.7556 18.1073C86.3929 18.3748 87.0861 18.7539 87.8464 19.2555C88.6067 19.7572 89.1769 20.4037 89.5459 21.1952C89.9149 21.9867 90.1049 22.9119 90.1049 23.9709C90.1049 26.0778 89.3558 27.7276 87.8576 28.9204C86.337 30.0909 84.3468 30.6817 81.887 30.6817Z" fill="#385766"/>
<path d="M109.783 8.70996L102.516 21.9532V30.2135H97.0035V22.009L89.7359 8.70996H95.9301L99.7539 16.6693L103.611 8.70996H109.783Z" fill="#385766"/>
<path d="M123.256 8.70996H128.746V30.2135H124.497L116.883 19.4005V30.2135H111.371V8.70996H115.653L123.267 19.5231V8.70996H123.256Z" fill="#385766"/>
<path d="M137.992 25.0522H146.344V30.2135H132.48V8.70996H146.199V13.8378H138.004V16.8142H145.428V21.8864H138.004V25.0522H137.992Z" fill="#385766"/>
<path d="M160.79 30.2135L157.033 23.2686H155.065V30.2135H149.553V8.70996H158.185C160.387 8.70996 162.232 9.41227 163.719 10.8169C165.206 12.2215 165.956 13.9939 165.956 16.1454C165.956 17.4385 165.631 18.6201 164.972 19.6903C164.312 20.7604 163.418 21.6188 162.288 22.2543L166.727 30.2135H160.79ZM155.065 13.7821V18.609H158.118C158.8 18.6313 159.348 18.4195 159.784 17.9624C160.22 17.5165 160.432 16.9257 160.432 16.2122C160.432 15.4988 160.22 14.908 159.784 14.4621C159.348 14.0162 158.8 13.7821 158.118 13.7821H155.065Z" fill="#385766"/>
<path d="M189.871 17.8955V20.0805C189.871 23.2352 188.876 25.788 186.897 27.75C184.918 29.7119 182.347 30.6818 179.182 30.6818C175.817 30.6818 173.044 29.6116 170.875 27.4601C168.706 25.3086 167.621 22.6555 167.621 19.5008C167.621 16.346 168.695 13.6818 170.853 11.508C173.011 9.33422 175.683 8.25293 178.869 8.25293C180.882 8.25293 182.727 8.69879 184.404 9.60174C186.081 10.5047 187.389 11.6975 188.328 13.1913L183.644 15.8667C183.208 15.1867 182.581 14.6516 181.743 14.2392C180.915 13.8267 179.976 13.626 178.925 13.626C177.215 13.626 175.828 14.1834 174.732 15.287C173.648 16.3906 173.1 17.8064 173.1 19.5231C173.1 21.1841 173.637 22.5886 174.721 23.7368C175.806 24.885 177.315 25.4536 179.272 25.4536C181.776 25.4536 183.431 24.5171 184.236 22.6221H178.992V17.8844H189.871V17.8955Z" fill="#385766"/>
<path d="M209.236 8.70996L201.969 21.9532V30.2135H196.457V22.009L189.189 8.70996H195.383L199.207 16.6693L203.065 8.70996H209.236Z" fill="#385766"/>
<path d="M211.204 30.6483C210.299 30.6483 209.538 30.3362 208.912 29.712C208.286 29.0877 207.973 28.3296 207.973 27.449C207.973 26.5683 208.286 25.8214 208.923 25.186C209.561 24.5617 210.321 24.2496 211.204 24.2496C212.088 24.2496 212.848 24.5617 213.474 25.186C214.1 25.8103 214.413 26.5683 214.413 27.449C214.413 28.3296 214.1 29.0877 213.474 29.712C212.837 30.3362 212.088 30.6483 211.204 30.6483Z" fill="#00BFA5"/>
<path d="M87.3656 45.9874C88.316 46.4779 89.0539 47.1579 89.5794 48.0162C90.1161 48.8746 90.3844 49.8667 90.3844 50.9926C90.3844 52.7539 89.7583 54.2143 88.506 55.3848C87.2538 56.5552 85.722 57.1349 83.9107 57.1349H74.6642V35.6313H83.2287C84.9953 35.6313 86.4935 36.1998 87.7122 37.3369C88.9309 38.4739 89.5459 39.8897 89.5459 41.5953C89.5571 43.4569 88.8303 44.9172 87.3656 45.9874ZM83.2399 38.9533H78.2197V44.6051H83.2399C84.0225 44.6051 84.6822 44.3375 85.2077 43.7913C85.7444 43.2451 86.0127 42.5762 86.0127 41.7736C86.0127 40.971 85.7444 40.3021 85.2077 39.7559C84.6822 39.2208 84.0225 38.9533 83.2399 38.9533ZM83.9219 53.8241C84.7381 53.8241 85.4313 53.5343 86.0015 52.9434C86.5606 52.3638 86.8513 51.6503 86.8513 50.8031C86.8513 49.9671 86.5718 49.2536 86.0015 48.6628C85.4313 48.0832 84.7381 47.7821 83.9219 47.7821H78.2197V53.8018H83.9219V53.8241Z" fill="#385766"/>
<path d="M111.449 54.2922C109.28 56.4549 106.641 57.5361 103.511 57.5361C100.38 57.5361 97.7414 56.4549 95.5723 54.2922C93.4032 52.1296 92.3187 49.4988 92.3187 46.3774C92.3187 43.2561 93.4032 40.6253 95.5723 38.4627C97.7414 36.3001 100.38 35.2188 103.511 35.2188C106.641 35.2188 109.28 36.3001 111.449 38.4627C113.618 40.6253 114.703 43.2561 114.703 46.3774C114.703 49.4988 113.618 52.1408 111.449 54.2922ZM98.0768 51.8955C99.5415 53.3558 101.353 54.0916 103.511 54.0916C105.669 54.0916 107.48 53.3558 108.956 51.8955C110.42 50.4352 111.158 48.5958 111.158 46.3774C111.158 44.1591 110.42 42.3309 108.956 40.8595C107.491 39.3991 105.669 38.6634 103.511 38.6634C101.353 38.6634 99.5415 39.3991 98.0768 40.8595C96.6121 42.3198 95.8742 44.1591 95.8742 46.3774C95.8742 48.5958 96.6121 50.4352 98.0768 51.8955Z" fill="#385766"/>
<path d="M130.982 35.6313V39.009H124.911V57.1349H121.366V39.009H115.262V35.6313H130.982Z" fill="#385766"/>
</svg>
