<svg width="223" height="54" viewBox="0 0 223 54" fill="none" xmlns="http://www.w3.org/2000/svg">
<path d="M32.1708 42.8201L16.1208 26.77L32.1708 10.72V21.4202L26.8208 26.77L32.1708 32.1201V42.8201ZM53.6008 0V53.55H0.0507812V0H53.6008ZM45.9408 7.65015H7.69078V45.9001H45.9408V7.65015Z" fill="#FF2BA9"/>
<path d="M71.871 17.2002C71.871 16.7702 71.671 16.4001 71.261 16.0701C70.851 15.7501 70.331 15.49 69.681 15.28C69.031 15.07 68.321 14.8501 67.531 14.6101C66.741 14.3701 65.961 14.07 65.181 13.71C64.401 13.35 63.691 12.9101 63.051 12.4001C62.411 11.8901 61.881 11.2101 61.471 10.3501C61.061 9.4901 60.861 8.50012 60.861 7.37012C60.861 5.43012 61.701 3.73001 63.381 2.26001C65.061 0.79001 67.221 0.0700684 69.841 0.0700684C70.921 0.0700684 71.941 0.190176 72.901 0.430176C73.861 0.670176 74.651 0.950029 75.261 1.28003C75.871 1.61003 76.411 1.94001 76.871 2.26001C77.331 2.59001 77.651 2.88013 77.831 3.13013L78.141 3.45996L74.401 7.37012C74.291 7.24012 74.131 7.07012 73.911 6.87012C73.691 6.67012 73.251 6.39004 72.571 6.04004C71.891 5.69004 71.201 5.51001 70.511 5.51001C69.781 5.51001 69.171 5.71012 68.691 6.12012C68.211 6.53012 67.961 7.00004 67.961 7.54004C67.961 7.97004 68.161 8.34016 68.571 8.66016C68.981 8.98016 69.501 9.2402 70.151 9.4502C70.801 9.6602 71.511 9.89013 72.281 10.1301C73.061 10.3701 73.841 10.67 74.631 11.03C75.421 11.39 76.141 11.8301 76.781 12.3401C77.421 12.8501 77.951 13.5301 78.361 14.3901C78.771 15.2501 78.971 16.2401 78.971 17.3701C78.971 19.5701 78.101 21.4102 76.371 22.9102C74.641 24.4102 72.341 25.1602 69.471 25.1602C68.301 25.1602 67.171 25.02 66.091 24.74C65.011 24.46 64.111 24.12 63.411 23.72C62.711 23.32 62.091 22.93 61.551 22.53C61.011 22.13 60.611 21.79 60.361 21.5L60.001 21.0901L63.721 17.2002C63.761 17.2702 63.841 17.36 63.961 17.47C64.081 17.58 64.301 17.7801 64.641 18.0801C64.981 18.3801 65.331 18.6401 65.711 18.8701C66.091 19.1001 66.551 19.3 67.121 19.47C67.681 19.65 68.251 19.74 68.811 19.74C69.711 19.74 70.451 19.49 71.021 18.99C71.591 18.49 71.871 17.9002 71.871 17.2002Z" fill="#231F20"/>
<path d="M94.401 0.75H101.351L92.881 16.01V24.48H86.441V16.01L77.971 0.75H84.921L89.671 9.90015L94.401 0.75Z" fill="#231F20"/>
<path d="M118.461 0.75H124.901V24.48H119.341L109.151 11.26V24.48H102.711V0.75H108.301L118.461 13.97V0.75Z" fill="#231F20"/>
<path d="M135.411 19.0601H147.611V24.49H128.971V0.76001H147.271V6.19019H135.401V9.91016H144.551V15.01H135.401V19.0601H135.411Z" fill="#231F20"/>
<path d="M150.321 24.49V0.76001H161.511C164.011 0.76001 166.081 1.5401 167.711 3.1001C169.341 4.6601 170.151 6.59015 170.151 8.90015C170.151 9.85015 170.011 10.7301 169.731 11.5601C169.451 12.3801 169.111 13.0501 168.711 13.5601C168.311 14.0701 167.921 14.5101 167.521 14.8701C167.121 15.2301 166.791 15.4801 166.531 15.6101L166.081 15.8601L171.001 24.5H164.231L160.161 17.04H156.771V24.5H150.321V24.49ZM163.001 10.5801C163.471 10.1301 163.711 9.56013 163.711 8.88013C163.711 8.20013 163.471 7.64019 163.001 7.19019C162.531 6.74019 161.911 6.52002 161.161 6.52002H156.761V11.25H161.161C161.911 11.26 162.531 11.0401 163.001 10.5801Z" fill="#231F20"/>
<path d="M185.231 25.1602C181.551 25.1602 178.421 23.93 175.851 21.46C173.281 19 172.001 16.0501 172.001 12.6101C172.001 9.18011 173.281 6.23001 175.851 3.76001C178.411 1.29001 181.541 0.0600586 185.231 0.0600586C186.501 0.0600586 187.711 0.230059 188.861 0.560059C190.011 0.890059 190.951 1.29 191.701 1.75C192.451 2.21 193.101 2.68014 193.651 3.14014C194.211 3.60014 194.611 4.00008 194.851 4.33008L195.231 4.81006L191.321 8.88013C191.251 8.79013 191.161 8.68004 191.061 8.54004C190.951 8.40004 190.701 8.16006 190.301 7.81006C189.901 7.46006 189.491 7.15013 189.061 6.88013C188.631 6.61013 188.061 6.37015 187.361 6.15015C186.661 5.93015 185.951 5.83008 185.231 5.83008C183.291 5.83008 181.671 6.47001 180.381 7.76001C179.091 9.05001 178.441 10.6601 178.441 12.6001C178.441 14.5401 179.091 16.1602 180.381 17.4502C181.671 18.7402 183.291 19.3901 185.231 19.3901C186.051 19.3901 186.791 19.27 187.461 19.02C188.131 18.77 188.611 18.51 188.881 18.23L189.281 17.8701V15.3201H185.561V11.25H195.741V20.4001C195.651 20.5301 195.501 20.7102 195.291 20.9202C195.081 21.1302 194.641 21.5201 193.981 22.0601C193.321 22.6101 192.611 23.09 191.851 23.51C191.091 23.93 190.111 24.3101 188.921 24.6401C187.731 25.0001 186.501 25.1602 185.231 25.1602Z" fill="#231F20"/>
<path d="M212.491 0.75H219.441L210.971 16.01V24.48H204.531V16.01L196.061 0.75H203.011L207.761 9.90015L212.491 0.75Z" fill="#231F20"/>
<path d="M216.961 23.9402C216.351 23.3602 216.041 22.63 216.041 21.77C216.041 20.91 216.351 20.1901 216.961 19.6001C217.571 19.0201 218.341 18.72 219.261 18.72C220.181 18.72 220.951 19.0101 221.561 19.6001C222.171 20.1801 222.481 20.91 222.481 21.77C222.481 22.63 222.171 23.3502 221.561 23.9402C220.951 24.5202 220.181 24.8201 219.261 24.8201C218.341 24.8201 217.581 24.5202 216.961 23.9402Z" fill="#FF2BA9"/>
<path d="M62.221 29.5801H70.531C73.831 29.5801 76.661 30.7501 79.021 33.0901C81.381 35.4301 82.561 38.2202 82.561 41.4502C82.561 44.6802 81.381 47.4701 79.021 49.8101C76.661 52.1501 73.831 53.3201 70.531 53.3201H62.221V29.5801ZM70.531 32.97H65.951V49.9202H70.531C72.841 49.9202 74.791 49.1 76.411 47.46C78.021 45.82 78.831 43.8202 78.831 41.4402C78.831 39.0702 78.021 37.0602 76.411 35.4202C74.791 33.7902 72.831 32.97 70.531 32.97Z" fill="#231F20"/>
<path d="M90.341 49.9202H103.731V53.3101H86.621V29.5801H103.401V32.97H90.341V39.24H100.681V42.6301H90.341V49.9202Z" fill="#231F20"/>
<path d="M118.641 46.53C118.641 45.8 118.411 45.1902 117.941 44.7002C117.481 44.2102 116.881 43.82 116.141 43.54C115.401 43.26 114.591 43 113.701 42.78C112.811 42.55 111.911 42.2802 111.021 41.9502C110.131 41.6202 109.311 41.22 108.581 40.76C107.851 40.3 107.251 39.64 106.791 38.78C106.331 37.92 106.091 36.9002 106.091 35.6902C106.091 33.8602 106.791 32.3301 108.191 31.1001C109.591 29.8701 111.491 29.25 113.881 29.25C114.761 29.25 115.611 29.3601 116.421 29.5701C117.231 29.7801 117.901 30.0401 118.441 30.3301C118.981 30.6201 119.441 30.92 119.851 31.21C120.251 31.5 120.551 31.75 120.741 31.96L121.001 32.29L118.631 34.6702C118.591 34.6302 118.521 34.5502 118.441 34.4502C118.361 34.3502 118.171 34.1802 117.881 33.9502C117.591 33.7202 117.271 33.5201 116.941 33.3401C116.601 33.1601 116.161 33.0001 115.621 32.8501C115.081 32.7101 114.501 32.6301 113.891 32.6301C112.671 32.6301 111.681 32.93 110.931 33.54C110.191 34.15 109.811 34.8602 109.811 35.6802C109.811 36.4102 110.041 37.02 110.511 37.52C110.971 38.02 111.571 38.4002 112.311 38.6902C113.041 38.9702 113.861 39.2302 114.751 39.4502C115.641 39.6802 116.541 39.95 117.431 40.28C118.321 40.61 119.141 41 119.871 41.46C120.601 41.92 121.201 42.5902 121.671 43.4502C122.141 44.3102 122.361 45.34 122.361 46.53C122.361 48.63 121.611 50.3402 120.111 51.6602C118.611 52.9802 116.531 53.6501 113.891 53.6501C112.811 53.6501 111.781 53.52 110.801 53.26C109.821 53 109.021 52.6901 108.391 52.3301C107.761 51.9701 107.221 51.61 106.751 51.25C106.291 50.89 105.951 50.5801 105.741 50.3401L105.411 49.9302L107.781 47.5601C107.821 47.6301 107.901 47.7201 108.001 47.8501C108.101 47.9801 108.341 48.2 108.711 48.51C109.081 48.82 109.481 49.1001 109.911 49.3401C110.341 49.5801 110.911 49.79 111.621 49.98C112.331 50.17 113.081 50.27 113.881 50.27C115.351 50.27 116.511 49.9102 117.351 49.1902C118.191 48.4702 118.641 47.59 118.641 46.53Z" fill="#231F20"/>
<path d="M126.091 53.3101V29.5801H129.811V53.3101H126.091Z" fill="#231F20"/>
<path d="M148.271 40.77H156.581V49.24C156.491 49.35 156.361 49.51 156.171 49.71C155.991 49.91 155.581 50.27 154.951 50.79C154.321 51.31 153.641 51.7501 152.911 52.1301C152.181 52.5101 151.241 52.8602 150.061 53.1702C148.891 53.4802 147.671 53.6401 146.411 53.6401C142.861 53.6401 139.881 52.4601 137.471 50.1001C135.061 47.7401 133.861 44.8502 133.861 41.4402C133.861 38.0302 135.061 35.15 137.471 32.78C139.881 30.42 142.851 29.24 146.411 29.24C147.611 29.24 148.771 29.4 149.871 29.71C150.971 30.02 151.891 30.4101 152.611 30.8601C153.331 31.3101 153.961 31.7602 154.501 32.2002C155.041 32.6402 155.441 33.0201 155.691 33.3401L156.051 33.8L153.681 36.1802C153.611 36.0902 153.521 35.9701 153.391 35.8101C153.261 35.6501 152.971 35.3602 152.521 34.9402C152.071 34.5202 151.581 34.1601 151.061 33.8601C150.541 33.5601 149.871 33.28 149.031 33.02C148.201 32.76 147.321 32.6301 146.391 32.6301C143.931 32.6301 141.841 33.4802 140.131 35.1902C138.421 36.8902 137.561 38.9802 137.561 41.4402C137.561 43.9002 138.411 45.9902 140.121 47.7002C141.821 49.4102 143.911 50.27 146.381 50.27C147.201 50.27 147.981 50.19 148.721 50.03C149.461 49.87 150.071 49.6702 150.551 49.4302C151.021 49.1902 151.441 48.96 151.801 48.72C152.161 48.48 152.421 48.2901 152.571 48.1301L152.821 47.8801V44.1602H148.241V40.77H148.271Z" fill="#231F20"/>
<path d="M177.741 29.5801H181.461V53.3101H178.251L165.031 36.2002V53.3101H161.311V29.5801H164.521L177.741 46.71V29.5801Z" fill="#231F20"/>
</svg>
