<svg width="365" height="479" viewBox="0 0 365 479" fill="none" xmlns="http://www.w3.org/2000/svg">
<path d="M178.799 478.938C271.096 478.938 345.918 463.975 345.918 445.517C345.918 427.058 271.096 412.095 178.799 412.095C86.5012 412.095 11.6792 427.058 11.6792 445.517C11.6792 463.975 86.5012 478.938 178.799 478.938Z" fill="#FF5136"/>
<path opacity="0.5" d="M178.799 478.938C271.096 478.938 345.918 463.975 345.918 445.517C345.918 427.058 271.096 412.095 178.799 412.095C86.5012 412.095 11.6792 427.058 11.6792 445.517C11.6792 463.975 86.5012 478.938 178.799 478.938Z" fill="white"/>
<path d="M357.129 5.35229H232.33V10.1603H357.129V5.35229Z" fill="white" stroke="#263238" stroke-linecap="round" stroke-linejoin="round"/>
<path d="M154.005 414.827C154.005 414.827 151.125 418.955 153.189 421.007C155.253 423.058 157.305 422.243 157.095 424.307C156.885 426.371 153.597 433.367 150.717 440.783C147.837 448.199 153.807 455.615 159.369 453.563C164.931 451.511 164.313 430.895 165.129 427.187C165.945 423.479 166.575 422.861 166.365 419.363C166.155 415.865 165.957 412.157 163.275 411.737C160.593 411.316 155.241 413.393 154.005 414.827Z" fill="white" stroke="#263238" stroke-linecap="round" stroke-linejoin="round"/>
<path d="M147.627 405.767C147.627 405.767 153.597 415.865 155.241 418.535C156.885 421.205 162.459 420.389 163.077 416.681C163.695 412.973 160.803 402.677 160.803 402.677L148.443 405.767H147.627Z" fill="white" stroke="#263238" stroke-linecap="round" stroke-linejoin="round"/>
<path d="M133.413 389.699C133.413 389.699 131.757 392.381 132.585 394.235C133.413 396.089 135.675 401.441 137.121 404.123C138.567 406.805 145.155 408.449 152.769 407.213C160.383 405.977 164.721 402.467 164.931 399.377C165.141 396.287 163.695 392.171 162.657 387.227C161.619 382.283 158.949 382.493 155.241 382.493C151.533 382.493 136.503 386.819 133.413 389.699Z" fill="#FF5136" stroke="#263238" stroke-linecap="round" stroke-linejoin="round"/>
<path d="M356.214 0.914795H235.716C231.6 0.914795 228.263 4.25166 228.263 8.36788V141.201C228.263 145.317 231.6 148.654 235.716 148.654H356.214C360.33 148.654 363.667 145.317 363.667 141.201V8.36788C363.667 4.25166 360.33 0.914795 356.214 0.914795Z" fill="white" stroke="#263238" stroke-linecap="round" stroke-linejoin="round"/>
<path d="M235.716 0.914888H356.202C358.168 0.914888 360.055 1.69621 361.445 3.08698C362.836 4.47775 363.618 6.36404 363.618 8.33088V16.0682H228.263V8.36797C228.258 7.38784 228.448 6.41646 228.821 5.50999C229.193 4.60353 229.742 3.77995 230.435 3.08689C231.128 2.39383 231.952 1.84502 232.858 1.47221C233.765 1.0994 234.736 0.909975 235.716 0.914888Z" fill="#263238" stroke="#263238" stroke-linecap="round" stroke-linejoin="round"/>
<path d="M235.642 79.7964H290.125" stroke="#263238" stroke-linecap="round" stroke-linejoin="round"/>
<path d="M235.642 86.8293H290.125" stroke="#263238" stroke-linecap="round" stroke-linejoin="round"/>
<path d="M235.642 93.8621H290.125" stroke="#263238" stroke-linecap="round" stroke-linejoin="round"/>
<path d="M235.642 100.895H290.125" stroke="#263238" stroke-linecap="round" stroke-linejoin="round"/>
<path d="M235.642 107.928H290.125" stroke="#263238" stroke-linecap="round" stroke-linejoin="round"/>
<path d="M235.642 114.973H290.125" stroke="#263238" stroke-linecap="round" stroke-linejoin="round"/>
<path d="M235.642 122.006H290.125" stroke="#263238" stroke-linecap="round" stroke-linejoin="round"/>
<path d="M235.642 129.039H290.125" stroke="#263238" stroke-linecap="round" stroke-linejoin="round"/>
<path d="M235.642 136.072H290.125" stroke="#263238" stroke-linecap="round" stroke-linejoin="round"/>
<path d="M299.704 79.7964H354.187" stroke="#263238" stroke-linecap="round" stroke-linejoin="round"/>
<path d="M299.704 86.8293H354.187" stroke="#263238" stroke-linecap="round" stroke-linejoin="round"/>
<path d="M299.704 93.8621H354.187" stroke="#263238" stroke-linecap="round" stroke-linejoin="round"/>
<path d="M299.704 100.895H354.187" stroke="#263238" stroke-linecap="round" stroke-linejoin="round"/>
<path d="M299.704 107.928H354.187" stroke="#263238" stroke-linecap="round" stroke-linejoin="round"/>
<path d="M299.704 114.973H354.187" stroke="#263238" stroke-linecap="round" stroke-linejoin="round"/>
<path d="M299.704 122.006H354.187" stroke="#263238" stroke-linecap="round" stroke-linejoin="round"/>
<path d="M299.704 129.039H354.187" stroke="#263238" stroke-linecap="round" stroke-linejoin="round"/>
<path d="M299.704 136.072H354.187" stroke="#263238" stroke-linecap="round" stroke-linejoin="round"/>
<path d="M272.079 35.2634C272.348 34.4282 272.49 33.5574 272.499 32.6801C272.499 29.4789 269.249 29.2935 266.06 29.2935H265.257V28.5396H279.174V29.2935C275.552 29.2935 274.23 31.6048 273.105 35.0285L265.689 57.1653C265.133 58.8092 264.663 60.0328 262.92 60.0328H262.772L256.246 38.8849L250.177 57.2147C249.609 58.8586 249.139 60.0823 247.396 60.0823H247.26L237.768 29.2935H234.431V28.5396H246.642V29.2935H243.169L250.214 53.5438H250.499L255.813 37.4387L253.341 29.3553H250.004V28.5396H262.228V29.2935H258.755L265.8 53.5438H266.072L272.079 35.2634Z" fill="#FF5136"/>
<path d="M354.57 21.5312H298.505V72.2073H354.57V21.5312Z" fill="#FF5136" stroke="#263238" stroke-width="2" stroke-linecap="round" stroke-linejoin="round"/>
<path d="M354.57 42.7163C352.69 42.8234 350.821 43.0839 348.983 43.495C340.467 45.349 338.243 57.573 328.614 57.573C320.086 57.573 319.357 46.0906 307.132 44.6074C304.158 44.1389 301.113 44.6784 298.48 46.14V72.2073H354.57V42.7163Z" fill="#263238" stroke="#263238" stroke-linecap="round" stroke-linejoin="round"/>
<path d="M317.132 33.125C317.134 34.3728 316.766 35.5932 316.074 36.6317C315.383 37.6702 314.398 38.4801 313.246 38.9587C312.094 39.4374 310.825 39.5633 309.601 39.3204C308.377 39.0776 307.253 38.477 306.371 37.5947C305.488 36.7123 304.888 35.588 304.645 34.3641C304.402 33.1402 304.528 31.8717 305.007 30.7194C305.485 29.567 306.295 28.5827 307.334 27.891C308.372 27.1992 309.593 26.8313 310.84 26.8338C312.509 26.8338 314.109 27.4966 315.289 28.6764C316.469 29.8563 317.132 31.4565 317.132 33.125Z" fill="white" stroke="#263238" stroke-linecap="round" stroke-linejoin="round"/>
<path d="M349.341 178.133H295.316C293.192 178.133 291.155 178.976 289.652 180.478C288.15 181.98 287.307 184.018 287.307 186.142V215.039C287.307 217.164 288.15 219.201 289.652 220.703C291.155 222.205 293.192 223.049 295.316 223.049H296.972C295.291 226.757 292.028 232.442 286.874 235.817C286.874 235.817 297.837 235.05 309.258 223.049H349.317C351.441 223.049 353.478 222.205 354.98 220.703C356.482 219.201 357.326 217.164 357.326 215.039V186.142C357.326 184.022 356.486 181.988 354.989 180.487C353.492 178.986 351.461 178.139 349.341 178.133Z" fill="#263238" stroke="#263238" stroke-linecap="round" stroke-linejoin="round"/>
<path d="M313.041 199.565C313.043 198.747 312.803 197.947 312.35 197.267C311.897 196.586 311.253 196.055 310.498 195.741C309.743 195.427 308.912 195.344 308.11 195.503C307.308 195.662 306.571 196.055 305.993 196.633C305.415 197.212 305.022 197.948 304.863 198.75C304.704 199.552 304.787 200.383 305.101 201.138C305.415 201.893 305.946 202.538 306.627 202.99C307.307 203.443 308.107 203.683 308.925 203.681C310.015 203.678 311.06 203.243 311.832 202.472C312.603 201.7 313.037 200.655 313.041 199.565Z" fill="#FF5136" stroke="#263238" stroke-linecap="round" stroke-linejoin="round"/>
<path d="M327.044 199.565C327.044 198.751 326.803 197.955 326.351 197.278C325.898 196.601 325.256 196.074 324.503 195.762C323.751 195.451 322.924 195.369 322.125 195.528C321.327 195.687 320.594 196.079 320.018 196.654C319.442 197.23 319.05 197.963 318.892 198.762C318.733 199.56 318.814 200.388 319.126 201.14C319.437 201.892 319.965 202.535 320.642 202.987C321.319 203.439 322.114 203.681 322.928 203.681C324.019 203.677 325.064 203.243 325.835 202.472C326.606 201.7 327.041 200.655 327.044 199.565Z" fill="#FF5136" stroke="#263238" stroke-linecap="round" stroke-linejoin="round"/>
<path d="M341.061 199.565C341.063 198.748 340.823 197.949 340.371 197.268C339.919 196.588 339.275 196.056 338.521 195.742C337.767 195.428 336.936 195.344 336.135 195.502C335.333 195.66 334.596 196.052 334.018 196.629C333.439 197.206 333.045 197.941 332.884 198.743C332.724 199.544 332.805 200.374 333.117 201.129C333.429 201.885 333.958 202.53 334.638 202.984C335.317 203.438 336.115 203.681 336.932 203.681C338.024 203.678 339.07 203.243 339.844 202.472C340.617 201.702 341.054 200.657 341.061 199.565Z" fill="#FF5136" stroke="#263238" stroke-linecap="round" stroke-linejoin="round"/>
<path d="M52.2448 18.4417H141.237C143.354 18.4417 145.385 19.2829 146.883 20.7803C148.38 22.2777 149.221 24.3086 149.221 26.4262V88.115H44.2974V26.4262C44.2973 24.315 45.1335 22.2897 46.6229 20.7933C48.1122 19.297 50.1336 18.4515 52.2448 18.4417Z" fill="#FF5136" stroke="#263238" stroke-linecap="round" stroke-linejoin="round"/>
<path d="M149.172 78.165H44.2974V88.0778H149.172V78.165Z" fill="#263238" stroke="#263238" stroke-linecap="round" stroke-linejoin="round"/>
<path d="M144.376 81.5518H49.1055V84.6912H144.376V81.5518Z" fill="white" stroke="#263238" stroke-linecap="round" stroke-linejoin="round"/>
<path d="M96.7408 64.5445C104.741 64.5445 111.227 58.0589 111.227 50.0586C111.227 42.0582 104.741 35.5726 96.7408 35.5726C88.7405 35.5726 82.2549 42.0582 82.2549 50.0586C82.2549 58.0589 88.7405 64.5445 96.7408 64.5445Z" fill="#263238" stroke="#263238" stroke-linecap="round" stroke-linejoin="round"/>
<path d="M90.2021 41.0481L105.838 50.0709L90.2021 59.0937V41.0481Z" fill="white" stroke="#263238" stroke-linecap="round" stroke-linejoin="round"/>
<path d="M103.811 113.453H4.27556C2.35056 113.453 0.790039 115.013 0.790039 116.938V154.871C0.790039 156.796 2.35056 158.357 4.27556 158.357H103.811C105.736 158.357 107.296 156.796 107.296 154.871V116.938C107.296 115.013 105.736 113.453 103.811 113.453Z" fill="#263238" stroke="#263238" stroke-linecap="round" stroke-linejoin="round"/>
<path d="M34.2485 128.718H94.862" stroke="white" stroke-linecap="round" stroke-linejoin="round"/>
<path d="M34.2485 133.921H94.862" stroke="white" stroke-linecap="round" stroke-linejoin="round"/>
<path d="M34.2485 139.125H94.862" stroke="white" stroke-linecap="round" stroke-linejoin="round"/>
<path d="M34.2485 144.341H94.862" stroke="white" stroke-linecap="round" stroke-linejoin="round"/>
<path d="M84.1373 227.98C96.6481 225.938 105.135 214.141 103.093 201.63C101.051 189.119 89.2534 180.632 76.7426 182.674C64.2318 184.716 55.7452 196.514 57.7872 209.025C59.8292 221.535 71.6266 230.022 84.1373 227.98Z" fill="#263238" stroke="#263238" stroke-linecap="round" stroke-linejoin="round"/>
<path d="M94.9984 218.134C102.057 210.097 101.263 197.859 93.226 190.801C85.1887 183.742 72.9512 184.536 65.8928 192.573C58.8343 200.61 59.6278 212.848 67.6651 219.906C75.7024 226.965 87.9399 226.171 94.9984 218.134Z" fill="white" stroke="#263238" stroke-linecap="round" stroke-linejoin="round"/>
<path d="M80.4502 191.321V205.325H89.918" stroke="#263238" stroke-width="2" stroke-linecap="round" stroke-linejoin="round"/>
<path d="M224.048 205.374C224.048 205.374 237.212 233.468 237.212 234.951C237.212 236.435 225.531 242.788 223.307 244.123C221.581 245.106 219.803 245.993 217.979 246.78L219.314 259.795C219.314 259.795 239.424 255.21 247.854 250.624C256.283 246.038 255.987 240.86 254.034 233.172C252.081 225.484 239.09 195.77 239.09 195.77L224.048 205.374Z" fill="white"/>
<g style="mix-blend-mode:multiply" opacity="0.5">
<path d="M247.817 250.624C256.246 246.038 255.95 240.86 253.997 233.172C252.044 225.484 239.053 195.77 239.053 195.77L236.952 197.105L236.285 198.341C236.285 198.341 248.41 228.104 249.139 238.017C249.634 244.679 236.223 252.985 227.361 257.731C233.936 255.988 242.885 253.306 247.817 250.624Z" fill="#FF5136"/>
</g>
<path d="M224.048 205.374C224.048 205.374 237.212 233.468 237.212 234.951C237.212 236.435 225.531 242.788 223.307 244.123C221.581 245.106 219.803 245.993 217.979 246.78L219.314 259.795C219.314 259.795 239.424 255.21 247.854 250.624C256.283 246.038 255.987 240.86 254.034 233.172C252.081 225.484 239.09 195.77 239.09 195.77L224.048 205.374Z" stroke="#263238" stroke-linecap="round" stroke-linejoin="round"/>
<path d="M129.074 199.169C129.074 199.169 119.47 234.358 119.186 240.575C118.902 246.792 138.258 259.054 138.962 259.795C139.667 260.537 137.862 238.412 137.862 238.412L144.425 206.276L129.074 199.169Z" fill="white"/>
<g style="mix-blend-mode:multiply" opacity="0.5">
<path d="M133.474 202.049L133.264 201.098L129.074 199.169C129.074 199.169 119.47 234.358 119.186 240.575C118.902 246.793 138.258 259.054 138.962 259.795C139.246 260.092 139.135 256.779 138.9 252.688C133.141 247.806 124.872 240.934 123.908 238.042" fill="#FF5136"/>
</g>
<path d="M129.074 199.169C129.074 199.169 119.47 234.358 119.186 240.575C118.902 246.792 138.258 259.054 138.962 259.795C139.667 260.537 137.862 238.412 137.862 238.412L144.425 206.276L129.074 199.169Z" stroke="#263238" stroke-linecap="round" stroke-linejoin="round"/>
<path d="M174.176 163.82C174.176 163.82 170.468 166.49 163.237 166.786C156.007 167.083 155.661 161.842 146.675 161.842C135.786 161.842 122.128 196.29 122.128 196.29C122.128 196.29 128.926 202.952 135.588 205.757C139.273 207.372 143.148 208.514 147.12 209.156L148.158 231.787H221.502L222.38 209.156L245.308 194.287C245.308 194.287 234.06 174.177 228.597 166.638C223.134 159.098 213.95 161.904 211.145 163.82C208.339 165.736 200.021 166.193 196.955 165.748C192.957 164.863 189.005 163.778 185.114 162.497C185.114 162.497 180.393 158.567 174.176 163.82Z" fill="#FF5136" stroke="#263238" stroke-linecap="round" stroke-linejoin="round"/>
<path d="M147.861 171.804L147.564 209.366" stroke="#263238" stroke-width="0.5" stroke-linecap="round" stroke-linejoin="round"/>
<path d="M150.519 175.216C150.519 175.216 151.557 193.545 155.463 203.755" stroke="#263238" stroke-width="0.5" stroke-linecap="round" stroke-linejoin="round"/>
<path d="M156.143 205.226C156.986 207.717 158.023 210.139 159.245 212.469" stroke="#263238" stroke-width="0.5" stroke-linecap="round" stroke-linejoin="round"/>
<path d="M152.88 173.139C154.283 179.804 156.264 186.334 158.8 192.656" stroke="#263238" stroke-width="0.5" stroke-linecap="round" stroke-linejoin="round"/>
<path d="M216.633 176.39C216.633 176.39 213.085 190.888 209.971 197.402" stroke="#263238" stroke-width="0.5" stroke-linecap="round" stroke-linejoin="round"/>
<path d="M222.38 209.218L222.231 179.937" stroke="#263238" stroke-width="0.5" stroke-linecap="round" stroke-linejoin="round"/>
<path d="M220.761 180.531C220.761 180.531 218.091 199.07 211.59 208.773" stroke="#263238" stroke-width="0.5" stroke-linecap="round" stroke-linejoin="round"/>
<path d="M217.51 205.077C217.51 205.077 214.544 210.701 212.479 213.655" stroke="#263238" stroke-width="0.5" stroke-linecap="round" stroke-linejoin="round"/>
<path d="M170.035 166.044C170.035 166.044 172.112 178.763 175.066 185.264C178.02 191.766 183.199 193.1 187.636 191.185C192.073 189.269 195.324 179.789 195.052 167.701" stroke="#263238" stroke-width="0.5" stroke-linecap="round" stroke-linejoin="round"/>
<path d="M159.541 139.421C159.541 139.421 156.723 134.551 154.511 137.06C152.299 139.569 156.291 145.342 158.503 147.257C160.716 149.173 162.347 147.999 162.211 145.935C162.075 143.871 159.541 139.421 159.541 139.421Z" fill="#FF5136" stroke="#263238" stroke-linecap="round" stroke-linejoin="round"/>
<path opacity="0.5" d="M159.541 139.421C159.541 139.421 156.723 134.551 154.511 137.06C152.299 139.569 156.291 145.342 158.503 147.257C160.716 149.173 162.347 147.999 162.211 145.935C162.075 143.871 159.541 139.421 159.541 139.421Z" fill="white"/>
<path d="M159.541 139.421C159.541 139.421 156.723 134.551 154.511 137.06C152.299 139.569 156.291 145.342 158.503 147.257C160.716 149.173 162.347 147.999 162.211 145.935C162.075 143.871 159.541 139.421 159.541 139.421Z" stroke="#263238" stroke-linecap="round" stroke-linejoin="round"/>
<path d="M204.273 139.421C204.273 139.421 207.079 134.551 209.303 137.06C211.528 139.569 207.523 145.342 205.311 147.257C203.099 149.173 201.455 147.999 201.603 145.935C201.751 143.871 204.273 139.421 204.273 139.421Z" fill="#FF5136" stroke="#263238" stroke-linecap="round" stroke-linejoin="round"/>
<path opacity="0.5" d="M204.273 139.421C204.273 139.421 207.079 134.551 209.303 137.06C211.528 139.569 207.523 145.342 205.311 147.257C203.099 149.173 201.455 147.999 201.603 145.935C201.751 143.871 204.273 139.421 204.273 139.421Z" fill="white"/>
<path d="M204.273 139.421C204.273 139.421 207.079 134.551 209.303 137.06C211.528 139.569 207.523 145.342 205.311 147.257C203.099 149.173 201.455 147.999 201.603 145.935C201.751 143.871 204.273 139.421 204.273 139.421Z" stroke="#263238" stroke-linecap="round" stroke-linejoin="round"/>
<path d="M172.841 162.794C174.237 169.105 176.016 175.325 178.168 181.42C180.838 188.07 185.856 188.07 187.932 183.781C190.009 179.492 191.331 163.511 191.331 163.511C191.331 163.511 177.426 165.451 172.841 162.794Z" fill="white" stroke="#263238" stroke-linecap="round" stroke-linejoin="round"/>
<path d="M159.838 141.053C159.838 141.053 163.682 154.649 170.962 162.645C178.242 170.642 180.85 172.533 184.719 171.953C188.587 171.372 192.703 166.341 198.463 155.885C204.223 145.428 204.643 137.406 205.125 136.665C205.607 135.923 203.889 121.141 195.657 114.775C187.426 108.41 178.205 105.616 170.22 112.563C162.236 119.509 157.168 130.843 159.838 141.053Z" fill="white"/>
<g style="mix-blend-mode:multiply" opacity="0.5">
<path d="M195.621 114.726C187.339 108.373 178.168 105.567 170.184 112.513C162.199 119.46 157.169 130.843 159.838 141.053C159.838 141.053 160.568 143.673 162.014 147.233C162.009 146.777 162.072 146.323 162.199 145.885C163.967 140.286 169.183 129.447 186.734 134.415C200.676 138.346 198.97 150.607 197.672 157.145L198.426 155.786C204.198 145.292 204.606 137.308 205.088 136.566C205.57 135.824 203.902 121.091 195.621 114.726Z" fill="#FF5136"/>
</g>
<path d="M159.838 141.053C159.838 141.053 163.682 154.649 170.962 162.645C178.242 170.642 180.85 172.533 184.719 171.953C188.587 171.372 192.703 166.341 198.463 155.885C204.223 145.428 204.643 137.406 205.125 136.665C205.607 135.923 203.889 121.141 195.657 114.775C187.426 108.41 178.205 105.616 170.22 112.563C162.236 119.509 157.168 130.843 159.838 141.053Z" stroke="#263238" stroke-linecap="round" stroke-linejoin="round"/>
<path d="M184.682 148.147C184.223 151.034 183.976 153.951 183.94 156.873C184.089 159.827 184.978 160.717 183.644 161.014C182.309 161.311 180.838 159.234 180.838 159.234" stroke="#263238" stroke-linecap="round" stroke-linejoin="round"/>
<path d="M169.887 150.52C170.744 151.139 171.767 151.484 172.824 151.511C173.881 151.537 174.92 151.244 175.807 150.669" stroke="#263238" stroke-linecap="round" stroke-linejoin="round"/>
<path d="M188.674 150.52C189.529 151.138 190.55 151.483 191.605 151.509C192.659 151.536 193.697 151.243 194.582 150.669" stroke="#263238" stroke-linecap="round" stroke-linejoin="round"/>
<path d="M179.33 145.539C179.33 145.539 176.512 138.581 167.205 141.831" stroke="#263238" stroke-linecap="round" stroke-linejoin="round"/>
<path d="M187.08 144.686C187.08 144.686 189.44 137.876 197.87 141.868" stroke="#263238" stroke-linecap="round" stroke-linejoin="round"/>
<path d="M181.122 151.027C181.122 154.834 176.759 157.912 171.37 157.912C165.981 157.912 161.605 154.834 161.605 151.027C161.605 147.22 165.684 145.638 171.073 145.638C176.462 145.638 181.122 147.233 181.122 151.027Z" stroke="#263238" stroke-linecap="round" stroke-linejoin="round"/>
<path d="M203.605 151.027C203.605 154.834 199.23 157.912 193.841 157.912C188.452 157.912 184.089 154.834 184.089 151.027C184.089 147.22 188.155 145.638 193.544 145.638C198.933 145.638 203.605 147.233 203.605 151.027Z" stroke="#263238" stroke-linecap="round" stroke-linejoin="round"/>
<path d="M78.9792 269.597L78.3735 419.437C78.3735 419.909 78.5611 420.362 78.8948 420.696C79.2286 421.029 79.6813 421.217 80.1534 421.217C80.6137 421.217 81.0559 421.038 81.386 420.717C81.7161 420.396 81.908 419.959 81.9208 419.499L86.1974 269.807L78.9792 269.597Z" fill="white" stroke="#263238" stroke-linecap="round" stroke-linejoin="round"/>
<path d="M68.8935 304.625L68.3125 459.533C68.3109 459.767 68.3558 459.999 68.4447 460.216C68.5335 460.432 68.6646 460.629 68.8302 460.795C68.9958 460.96 69.1926 461.092 69.4093 461.18C69.626 461.269 69.8582 461.314 70.0924 461.313C70.5519 461.313 70.9937 461.136 71.3254 460.818C71.6571 460.5 71.8531 460.066 71.8722 459.607L76.1364 304.822L68.8935 304.625Z" fill="white" stroke="#263238" stroke-linecap="round" stroke-linejoin="round"/>
<path d="M286.133 269.597L286.738 419.437C286.74 419.67 286.695 419.901 286.607 420.117C286.519 420.333 286.389 420.529 286.225 420.695C286.061 420.86 285.865 420.992 285.65 421.081C285.435 421.171 285.204 421.217 284.971 421.217C284.509 421.217 284.066 421.038 283.734 420.718C283.402 420.397 283.207 419.96 283.191 419.499L278.927 269.807L286.133 269.597Z" fill="white" stroke="#263238" stroke-linecap="round" stroke-linejoin="round"/>
<path d="M296.231 304.625L296.837 459.533C296.838 459.767 296.793 459.999 296.704 460.216C296.616 460.432 296.484 460.629 296.319 460.795C296.153 460.96 295.956 461.092 295.74 461.18C295.523 461.269 295.291 461.314 295.057 461.313C294.598 461.313 294.158 461.135 293.828 460.817C293.499 460.499 293.305 460.065 293.289 459.607L289.013 304.822L296.231 304.625Z" fill="white" stroke="#263238" stroke-linecap="round" stroke-linejoin="round"/>
<path d="M139.123 311.064L138.764 448.557C138.725 448.9 138.821 449.245 139.03 449.519C139.24 449.793 139.548 449.976 139.889 450.028C140.222 449.982 140.525 449.81 140.737 449.548C140.948 449.287 141.052 448.954 141.026 448.619L143.708 311.225L139.123 311.064Z" fill="white" stroke="#263238" stroke-linecap="round" stroke-linejoin="round"/>
<path d="M226.15 306.639L226.484 426.63C226.512 426.921 226.428 427.211 226.249 427.441C226.069 427.671 225.808 427.823 225.52 427.866C225.232 427.823 224.972 427.671 224.795 427.44C224.617 427.21 224.536 426.919 224.568 426.63L222.281 306.738L226.15 306.639Z" fill="white" stroke="#263238" stroke-linecap="round" stroke-linejoin="round"/>
<path d="M137.776 306.639L138.11 426.63C138.138 426.921 138.054 427.211 137.875 427.441C137.695 427.671 137.434 427.823 137.146 427.866C136.858 427.823 136.598 427.671 136.421 427.44C136.243 427.21 136.162 426.919 136.194 426.63L133.907 306.738L137.776 306.639Z" fill="white" stroke="#263238" stroke-linecap="round" stroke-linejoin="round"/>
<path d="M223.665 311.064L224.048 448.557C224.088 448.9 223.992 449.245 223.783 449.519C223.573 449.793 223.265 449.976 222.924 450.028C222.592 449.979 222.29 449.807 222.08 449.546C221.869 449.285 221.764 448.954 221.787 448.619L219.104 311.225L223.665 311.064Z" fill="white" stroke="#263238" stroke-linecap="round" stroke-linejoin="round"/>
<path d="M180.788 320.693C211.165 320.693 235.79 315.065 235.79 308.123C235.79 301.18 211.165 295.552 180.788 295.552C150.411 295.552 125.786 301.18 125.786 308.123C125.786 315.065 150.411 320.693 180.788 320.693Z" fill="white" stroke="#263238" stroke-linecap="round" stroke-linejoin="round"/>
<path d="M155.661 329.135C155.772 324.067 158.701 321.57 158.924 318.097C159.272 313.506 158.893 308.888 157.799 304.415L152.163 296.714C135.946 296.924 124.328 297.196 124.143 297.258C123.525 297.456 123.104 300.966 122.696 303.846C122.696 303.846 115.812 304.724 117.048 323.882C117.221 326.551 124.167 357.439 124.674 360.962C127.764 382.48 134.649 393.258 134.649 393.258C134.649 393.258 135.267 395.94 143.301 395.322C151.335 394.704 159.369 389.353 159.369 389.353C159.369 389.353 155.24 347.465 155.661 329.135Z" fill="#263238" stroke="#263238" stroke-linecap="round" stroke-linejoin="round"/>
<path d="M121.584 300.707C121.584 300.707 113.068 301.943 107.852 307.9C102.636 313.858 107.061 317.788 117.196 316.725C127.331 315.662 139.024 305.292 139.518 304.736C140.013 304.18 128.95 297.135 121.584 300.707Z" fill="white" stroke="#263238" stroke-linecap="round" stroke-linejoin="round"/>
<path d="M136.7 304.415C142.126 304.694 147.51 305.522 152.768 306.887C159.777 308.951 172.137 313.067 175.016 313.067C177.896 313.067 177.081 302.351 177.081 300.299C177.081 298.247 140.001 296.999 135.464 296.999C130.928 296.999 136.7 304.415 136.7 304.415Z" fill="white" stroke="#263238" stroke-linecap="round" stroke-linejoin="round"/>
<path d="M177.08 300.299C177.08 300.299 173.78 301.943 172.544 308.123C171.308 314.303 169.664 317.603 172.136 319.247C174.608 320.891 185.324 322.127 186.968 320.483C188.612 318.839 193.148 310.595 193.976 305.243C194.805 299.891 177.08 300.299 177.08 300.299Z" fill="#FF5136" stroke="#263238" stroke-linecap="round" stroke-linejoin="round"/>
<path d="M191.084 302.351C189.169 304.549 187.639 307.057 186.561 309.767C185.687 312.603 184.998 315.493 184.497 318.419C188.44 319.499 192.295 320.88 196.028 322.547C202.629 325.427 213.753 327.491 224.456 329.963C235.16 332.435 238.052 334.907 241.76 334.907C245.468 334.907 250.005 332.015 255.777 325.019C261.549 318.023 256.592 303.179 250.833 298.643C245.073 294.106 214.161 290.411 210.045 291.647C205.929 292.883 191.084 302.351 191.084 302.351Z" fill="#263238" stroke="#263238" stroke-linecap="round" stroke-linejoin="round"/>
<path d="M113.785 316.836C112.971 313.139 111.322 309.676 108.965 306.714C108.582 307.072 108.211 307.443 107.852 307.851C103.267 313.067 106.134 316.775 113.785 316.836Z" fill="#FF5136" stroke="#263238" stroke-linecap="round" stroke-linejoin="round"/>
<path d="M155.03 320.1C155.03 320.1 150.778 365.597 142.102 372.679" stroke="white" stroke-width="0.5" stroke-linecap="round" stroke-linejoin="round"/>
<path d="M152.027 363.286C152.027 363.286 148.652 378.118 139.803 384.013" stroke="white" stroke-width="0.5" stroke-linecap="round" stroke-linejoin="round"/>
<path d="M206.744 311.831C206.744 311.831 193.556 312.659 202.208 318.419C210.86 324.178 226.52 327.899 226.52 327.899" stroke="white" stroke-width="0.5" stroke-linecap="round" stroke-linejoin="round"/>
<path d="M302.485 296.245L298.035 292.24L287.752 269.992C287.264 268.98 286.498 268.127 285.544 267.534C284.59 266.941 283.486 266.632 282.363 266.642H82.6252C81.4996 266.63 80.3936 266.938 79.4369 267.531C78.4803 268.124 77.7126 268.978 77.2239 269.992L64.4065 297.703L62.293 296.925V303.265L62.3919 303.191C62.5178 304.037 62.9471 304.808 63.5998 305.361C64.2525 305.914 65.084 306.21 65.9392 306.195H299.036C299.937 306.215 300.81 305.885 301.472 305.274C302.134 304.663 302.533 303.819 302.584 302.919L302.485 296.245Z" fill="#263238" stroke="#263238" stroke-linecap="round" stroke-linejoin="round"/>
<path d="M299.037 300.398H65.9394C65.3622 300.421 64.7886 300.297 64.2724 300.037C63.7562 299.778 63.3143 299.392 62.9882 298.915C62.662 298.438 62.4623 297.886 62.4078 297.311C62.3533 296.736 62.4457 296.156 62.6764 295.627L77.2241 264.195C77.7104 263.179 78.4776 262.324 79.4348 261.73C80.392 261.137 81.4992 260.83 82.6254 260.846H282.363C283.487 260.832 284.592 261.14 285.547 261.734C286.501 262.327 287.267 263.181 287.752 264.195L302.3 295.627C302.53 296.156 302.623 296.736 302.568 297.311C302.514 297.886 302.314 298.438 301.988 298.915C301.662 299.392 301.22 299.778 300.704 300.037C300.188 300.297 299.614 300.421 299.037 300.398Z" fill="white" stroke="#263238" stroke-linecap="round" stroke-linejoin="round"/>
<g style="mix-blend-mode:multiply" opacity="0.5">
<path d="M77.7432 279.287C77.7432 279.287 72.4655 282.908 75.7656 284.231C79.0657 285.553 116.999 284.565 121.621 283.242C126.244 281.92 131.509 269.72 131.509 267.743C131.509 265.765 124.86 264.344 122.412 264.232C119.965 264.121 87.6312 266.086 87.6312 266.086L77.7432 279.287Z" fill="#FF5136"/>
</g>
<g style="mix-blend-mode:multiply" opacity="0.5">
<path d="M266.431 285.553C273.899 285.553 279.953 283.041 279.953 279.942C279.953 276.843 273.899 274.331 266.431 274.331C258.963 274.331 252.909 276.843 252.909 279.942C252.909 283.041 258.963 285.553 266.431 285.553Z" fill="#FF5136"/>
</g>
<g style="mix-blend-mode:multiply" opacity="0.5">
<path d="M180.344 292.487C207.123 292.487 228.832 288.425 228.832 283.415C228.832 278.405 207.123 274.343 180.344 274.343C153.564 274.343 131.855 278.405 131.855 283.415C131.855 288.425 153.564 292.487 180.344 292.487Z" fill="#FF5136"/>
</g>
<path d="M256.543 257.867C256.543 257.867 255.653 254.32 252.699 255.506C249.745 256.693 250.042 264.529 250.623 268.966C251.204 273.404 255.208 271.327 255.208 271.327V268.67C255.208 268.67 253.737 269.844 252.996 268.225C252.254 266.606 252.403 258.46 253.144 258.609C253.886 258.757 255.357 261.266 255.357 261.266C255.357 261.266 255.802 260.982 256.543 257.867Z" fill="#FF5136" stroke="#263238" stroke-linecap="round" stroke-linejoin="round"/>
<path d="M254.417 258.46V277.89C254.417 280.177 259.67 282.031 266.159 282.031C272.648 282.031 277.889 280.177 277.889 277.89V258.46H254.417Z" fill="#FF5136" stroke="#263238" stroke-linecap="round" stroke-linejoin="round"/>
<path d="M277.889 258.46C277.889 260.438 272.636 262.032 266.159 262.032C259.682 262.032 254.417 260.438 254.417 258.46C254.417 256.483 259.67 254.888 266.159 254.888C272.648 254.888 277.889 256.495 277.889 258.46Z" fill="white" stroke="#263238" stroke-linecap="round" stroke-linejoin="round"/>
<path d="M276.356 258.46C276.356 260.178 271.783 261.563 266.159 261.563C260.535 261.563 255.95 260.178 255.95 258.46C255.95 256.742 260.523 255.358 266.159 255.358C271.795 255.358 276.356 256.742 276.356 258.46Z" fill="white" stroke="#263238" stroke-linecap="round" stroke-linejoin="round"/>
<path d="M258.286 260.438C263.423 261.937 268.882 261.937 274.02 260.438C268.882 258.938 263.423 258.938 258.286 260.438Z" fill="#263238" stroke="#263238" stroke-linecap="round" stroke-linejoin="round"/>
<path d="M76.2847 267.335L76.433 273.984L121.238 274.429V266.741L76.2847 267.335Z" fill="white" stroke="#263238" stroke-linecap="round" stroke-linejoin="round"/>
<path d="M121.238 274.429L127.752 260.388V256.248L120.941 268.076L121.238 274.429Z" fill="white" stroke="#263238" stroke-linecap="round" stroke-linejoin="round"/>
<path d="M76.2847 273.391L76.433 280.053L121.238 280.498V272.81L76.2847 273.391Z" fill="white" stroke="#263238" stroke-linecap="round" stroke-linejoin="round"/>
<path d="M121.238 280.498L127.752 266.445V262.304L120.941 274.133L121.238 280.498Z" fill="white" stroke="#263238" stroke-linecap="round" stroke-linejoin="round"/>
<path d="M93.5889 250.476C93.5889 250.476 94.6272 248.412 93.144 247.522C91.6608 246.632 90.0416 248.758 89.1517 249.437C88.2618 250.117 69.6353 262.453 69.042 264.381C68.4487 266.309 69.042 270.561 73.0343 271.03C77.0266 271.5 80.5739 268.818 82.3537 268.373C84.1336 267.928 84.8257 267.78 84.8257 267.78L97.0992 251.217L93.5889 250.476Z" fill="white" stroke="#263238" stroke-linecap="round" stroke-linejoin="round"/>
<path d="M73.0338 271.043C77.0261 271.488 80.5734 268.83 82.3533 268.385C84.1331 267.94 84.8253 267.792 84.8253 267.792L85.2702 267.186L73.7383 264.838C73.1114 264.247 72.3053 263.883 71.4478 263.802C70.5903 263.722 69.7305 263.93 69.0045 264.393C68.4483 266.296 69.0416 270.585 73.0338 271.043Z" fill="white" stroke="#263238" stroke-linecap="round" stroke-linejoin="round"/>
<path d="M73.7754 264.863H108.383C119.186 264.863 122.437 264.269 122.437 264.269L129.086 250.513C129.086 250.513 108.074 251.848 101.585 251.403C98.904 251.325 96.2335 251.028 93.6008 250.513L73.7754 264.863Z" fill="white" stroke="#263238" stroke-linecap="round" stroke-linejoin="round"/>
<path d="M73.7754 264.863L74.3687 267.52C74.3687 267.52 102.463 267.668 109.854 267.668C117.246 267.668 122.869 267.965 122.869 267.965L122.424 264.257L73.7754 264.863Z" fill="white" stroke="#263238" stroke-linecap="round" stroke-linejoin="round"/>
<path d="M122.87 267.928L129.074 253.726V250.476L122.425 264.232L122.87 267.928Z" fill="white" stroke="#263238" stroke-linecap="round" stroke-linejoin="round"/>
<path d="M222.689 284.54H137.961C137.773 284.541 137.587 284.506 137.413 284.435C137.239 284.365 137.081 284.26 136.948 284.128C136.815 283.996 136.709 283.839 136.637 283.665C136.565 283.492 136.527 283.306 136.527 283.118C136.527 282.931 136.565 282.745 136.637 282.572C136.709 282.398 136.815 282.241 136.948 282.109C137.081 281.977 137.239 281.872 137.413 281.802C137.587 281.731 137.773 281.695 137.961 281.697H222.689C222.876 281.695 223.062 281.731 223.235 281.802C223.408 281.873 223.565 281.977 223.698 282.11C223.83 282.242 223.935 282.399 224.006 282.573C224.076 282.746 224.112 282.931 224.11 283.118C224.112 283.306 224.076 283.491 224.006 283.664C223.935 283.838 223.83 283.995 223.698 284.127C223.565 284.26 223.408 284.364 223.235 284.435C223.062 284.506 222.876 284.542 222.689 284.54Z" fill="white" stroke="#263238" stroke-linecap="round" stroke-linejoin="round"/>
<path d="M223.406 281.672H137.232C136.917 281.673 136.613 281.553 136.383 281.337C136.154 281.121 136.015 280.825 135.996 280.511L131.312 224.211C131.291 224.036 131.307 223.86 131.36 223.692C131.412 223.525 131.5 223.37 131.617 223.239C131.734 223.108 131.877 223.004 132.038 222.932C132.198 222.861 132.372 222.825 132.548 222.826H228.103C228.278 222.825 228.452 222.861 228.613 222.932C228.773 223.004 228.917 223.108 229.034 223.239C229.151 223.37 229.238 223.525 229.291 223.692C229.344 223.86 229.36 224.036 229.339 224.211L224.654 280.511C224.635 280.828 224.495 281.125 224.263 281.341C224.03 281.558 223.724 281.676 223.406 281.672Z" fill="white" stroke="#263238" stroke-linecap="round" stroke-linejoin="round"/>
<path d="M188.452 253.22C188.452 256.581 184.806 259.301 180.319 259.301C175.832 259.301 172.174 256.581 172.174 253.22C172.174 249.858 175.82 247.151 180.319 247.151C184.818 247.151 188.452 249.87 188.452 253.22Z" fill="white" stroke="#263238" stroke-linecap="round" stroke-linejoin="round"/>
<path d="M272.66 209.243C273.982 208.211 274.911 206.759 275.293 205.127C275.571 203.903 275.541 202.629 275.206 201.419" stroke="#263238" stroke-linecap="round" stroke-linejoin="round"/>
<path d="M262.797 253.318C262.797 253.318 271.017 248.374 268.334 242.726C265.652 237.077 256.58 233.332 256.58 224.532C256.58 216.943 264.651 214.137 269.917 211.097" stroke="#263238" stroke-linecap="round" stroke-linejoin="round"/>
<path d="M270.386 253.158C270.386 253.158 274.972 250.105 274.972 245.26C274.972 242.009 271.499 239.883 266.913 234.655" stroke="#263238" stroke-linecap="round" stroke-linejoin="round"/>
<path d="M264.379 231.491C264.379 231.491 261.376 229.13 263.588 224.693" stroke="#263238" stroke-linecap="round" stroke-linejoin="round"/>
<path d="M194.792 102.02C196.263 101.711 199.415 100.499 201.541 95.5678C201.574 95.4932 201.591 95.4128 201.593 95.3313C201.594 95.2499 201.58 95.1689 201.55 95.0931C201.52 95.0172 201.476 94.9481 201.419 94.8896C201.362 94.831 201.294 94.7843 201.22 94.752C201.069 94.6893 200.899 94.6877 200.747 94.7477C200.595 94.8076 200.472 94.9244 200.404 95.0734C198.451 99.5972 195.658 100.598 194.496 100.821C196.575 98.3046 197.723 95.1485 197.746 91.8845C197.746 83.3067 189.799 76.3604 179.998 76.3604C170.196 76.3604 162.249 83.3067 162.249 91.8845C162.255 95.0169 163.298 98.059 165.215 100.537C163.349 100.438 160.197 101.229 156.205 105.888C156.09 106.006 156.027 106.163 156.027 106.327C156.027 106.491 156.09 106.648 156.205 106.766C156.319 106.861 156.463 106.914 156.612 106.914C156.702 106.914 156.791 106.894 156.872 106.856C156.954 106.817 157.025 106.761 157.082 106.692C162.187 100.747 165.561 101.748 166.241 102.02C165.087 102.655 164.005 103.413 163.015 104.282C157.317 109.411 153.844 119.114 154.289 127.197C154.789 132.558 156.732 137.684 159.913 142.029C164.051 139.067 167.483 135.226 169.961 130.781C171.808 127.517 173.459 124.145 174.905 120.683C174.905 124.305 175.375 128.68 177.278 131.807C178.651 134.277 180.663 136.333 183.103 137.759C185.542 139.186 188.32 139.93 191.146 139.915C192.122 139.929 193.096 139.834 194.051 139.631C194.135 139.61 194.213 139.572 194.281 139.519C194.35 139.465 194.406 139.398 194.446 139.322C199.217 140.336 203.964 140.249 204.693 139.236C205.867 137.617 207.536 132.561 208.092 126.381C209.105 115.9 202.505 106.803 194.792 102.02ZM178.428 131.053C176.03 127.135 176.104 120.745 176.388 117.074L176.549 116.654C176.663 120.429 177.626 124.131 179.365 127.484C181.105 130.837 183.577 133.755 186.598 136.022C188.267 137.176 190.118 138.041 192.073 138.581C189.045 138.791 182.816 138.21 178.428 131.053Z" fill="#263238"/>
<path d="M178.638 111.599C178.638 111.599 177.624 119.089 187.141 126.431C196.659 133.772 205.681 130.88 205.681 130.88" stroke="white" stroke-width="0.5" stroke-linecap="round" stroke-linejoin="round"/>
<path d="M180.034 109.127C180.034 109.127 190.058 123.724 203.901 119.917" stroke="white" stroke-width="0.5" stroke-linecap="round" stroke-linejoin="round"/>
<path d="M175.078 104.269C173.497 103.467 171.726 103.113 169.959 103.249C168.191 103.384 166.494 104.002 165.054 105.035C159.727 108.583 157.057 116.963 157.057 116.963" stroke="white" stroke-width="0.5" stroke-linecap="round" stroke-linejoin="round"/>
<path d="M175.338 108.336C175.338 108.336 171.024 107.186 168.354 109.856C167.053 111.035 165.94 112.406 165.054 113.922" stroke="white" stroke-width="0.5" stroke-linecap="round" stroke-linejoin="round"/>
<path d="M162.842 447.877C159.134 446.468 153.449 446.753 150.248 447.074C151.323 451.734 155.439 455.009 159.369 453.563C161.013 452.957 162.088 450.757 162.842 447.877Z" fill="#FF5136" stroke="#263238" stroke-linecap="round" stroke-linejoin="round"/>
<path d="M13.4713 119.571L13.9904 120.436C11.642 121.746 9.4543 124.045 9.4543 126.74C9.42425 127.203 9.48688 127.667 9.63853 128.105C9.79017 128.544 10.0278 128.947 10.3374 129.293C10.6471 129.638 11.0226 129.918 11.4418 130.116C11.8611 130.315 12.3158 130.427 12.7791 130.448C13.1252 130.448 13.3601 130.275 13.3601 129.929C13.3601 129.583 13.187 129.471 12.841 129.41C12.3742 129.283 11.9676 128.995 11.6937 128.597C11.4198 128.198 11.2963 127.715 11.3454 127.234C11.3544 126.85 11.4413 126.473 11.601 126.123C11.7606 125.774 11.9896 125.461 12.2741 125.203C12.5585 124.946 12.8924 124.748 13.2554 124.624C13.6185 124.499 14.0031 124.449 14.3859 124.478C14.8024 124.479 15.2143 124.564 15.5974 124.728C15.9804 124.891 16.3268 125.13 16.616 125.429C16.9053 125.729 17.1315 126.084 17.2813 126.472C17.4311 126.861 17.5015 127.275 17.4883 127.692C17.4823 128.215 17.3709 128.731 17.1608 129.21C16.9506 129.689 16.6461 130.121 16.2654 130.48C15.8847 130.839 15.4356 131.117 14.9449 131.299C14.4542 131.48 13.932 131.56 13.4095 131.536C12.7599 131.578 12.1087 131.483 11.4981 131.257C10.8874 131.031 10.3311 130.68 9.86495 130.225C9.39884 129.771 9.03341 129.224 8.79233 128.619C8.55125 128.014 8.43991 127.366 8.46551 126.715C8.42843 123.588 10.8386 121.067 13.4713 119.571ZM24.0885 119.571L24.6077 120.436C22.2469 121.746 20.0715 124.045 20.0715 126.74C20.0398 127.203 20.1012 127.668 20.2522 128.107C20.4032 128.546 20.6407 128.95 20.9507 129.296C21.2607 129.642 21.6368 129.922 22.0569 130.12C22.477 130.318 22.9325 130.429 23.3964 130.448C23.7425 130.448 23.9773 130.275 23.9773 129.929C23.9773 129.583 23.8043 129.471 23.4582 129.41C22.9915 129.283 22.5849 128.995 22.3109 128.597C22.037 128.198 21.9136 127.715 21.9626 127.234C21.9699 126.85 22.0556 126.471 22.2147 126.121C22.3737 125.771 22.6027 125.458 22.8875 125.199C23.1723 124.941 23.5069 124.744 23.8708 124.62C24.2346 124.496 24.62 124.448 25.0032 124.478C25.4196 124.479 25.8316 124.564 26.2146 124.728C26.5976 124.891 26.944 125.13 27.2333 125.429C27.5225 125.729 27.7487 126.084 27.8986 126.472C28.0484 126.861 28.1188 127.275 28.1055 127.692C28.0978 128.214 27.9852 128.73 27.7745 129.208C27.5639 129.686 27.2593 130.118 26.879 130.476C26.4986 130.834 26.0502 131.113 25.5603 131.295C25.0703 131.477 24.5489 131.559 24.0267 131.536C23.3776 131.576 22.7272 131.479 22.1175 131.253C21.5077 131.027 20.9521 130.675 20.4864 130.221C20.0207 129.767 19.6553 129.22 19.4135 128.617C19.1717 128.013 19.0591 127.365 19.0827 126.715C19.0333 123.588 21.4435 121.067 24.0885 119.571Z" fill="#FF5136"/>
</svg>
