<svg width="34" height="36" viewBox="0 0 34 36" fill="none" xmlns="http://www.w3.org/2000/svg">
<path d="M1.21909 0V10.8C1.21909 13.451 3.36812 15.6 6.01909 15.6C8.67005 15.6 10.8191 13.451 10.8191 10.8V3.6C10.8191 2.27452 9.74457 1.2 8.41909 1.2C7.0936 1.2 6.01909 2.27452 6.01909 3.6V12M14.4191 1.2H30.0191C31.3446 1.2 32.4191 2.27452 32.4191 3.6V32.4C32.4191 33.7255 31.3446 34.8 30.0191 34.8H6.01908C4.6936 34.8 3.61909 33.7255 3.61909 32.4V19.2M26.4191 10.8H16.8191M26.4191 18H16.8191M26.4191 25.2H9.61909" stroke="white" stroke-width="2"/>
</svg>
