<svg width="31" height="37" viewBox="0 0 31 37" fill="none" xmlns="http://www.w3.org/2000/svg">
<path fill-rule="evenodd" clip-rule="evenodd" d="M28.4032 5.39378C29.2043 5.67428 29.7397 6.42961 29.7397 7.27844V19.6956C29.7397 23.1661 28.4783 26.4789 26.2508 29.0456C25.1307 30.3381 23.7135 31.3446 22.2083 32.1586L15.6853 35.6823L9.15134 32.1568C7.64434 31.3428 6.22534 30.3381 5.10334 29.0438C2.874 26.4771 1.609 23.1624 1.609 19.6883V7.27844C1.609 6.42961 2.14434 5.67428 2.9455 5.39378L15.0125 1.15328C15.4415 1.00294 15.909 1.00294 16.3362 1.15328L28.4032 5.39378Z" stroke="#FFB3B3" stroke-width="2" stroke-linecap="round" stroke-linejoin="round"/>
<path d="M10.9084 17.8494L14.3771 21.3199L21.5234 14.1736" stroke="#FFB3B3" stroke-width="2" stroke-linecap="round" stroke-linejoin="round"/>
</svg>
