<svg width="37" height="36" viewBox="0 0 37 36" fill="none" xmlns="http://www.w3.org/2000/svg">
<path d="M1.95862 24.3745C1.95862 24.3745 2.21895 27.5608 2.27945 28.5655C2.36012 29.913 2.88078 31.4182 3.74978 32.4632C4.97628 33.9445 6.42095 34.467 8.34962 34.4707C10.6175 34.4743 27.1083 34.4743 29.3761 34.4707C31.3048 34.467 32.7494 33.9445 33.9759 32.4632C34.8449 31.4182 35.3656 29.913 35.4481 28.5655C35.5068 27.5608 35.7671 24.3745 35.7671 24.3745" stroke="#FFB3B3" stroke-width="2" stroke-linecap="round" stroke-linejoin="round"/>
<path d="M12.3934 5.77065V5.09048C12.3934 2.85381 14.2047 1.04248 16.4414 1.04248H21.1751C23.4099 1.04248 25.2231 2.85381 25.2231 5.09048L25.2249 5.77065" stroke="#FFB3B3" stroke-width="2" stroke-linecap="round" stroke-linejoin="round"/>
<path d="M18.8082 26.5767V24.2043" stroke="#FFB3B3" stroke-width="2" stroke-linecap="round" stroke-linejoin="round"/>
<path fill-rule="evenodd" clip-rule="evenodd" d="M1.85889 11.3798V17.7359C5.37522 20.0551 9.58822 21.6794 14.2119 22.3229C14.7656 20.3044 16.5861 18.8249 18.7989 18.8249C20.9769 18.8249 22.8341 20.3044 23.3511 22.3413C27.9931 21.6978 32.2226 20.0734 35.7572 17.7359V11.3798C35.7572 8.2741 33.2584 5.77344 30.1527 5.77344H7.48172C4.37605 5.77344 1.85889 8.2741 1.85889 11.3798Z" stroke="#FFB3B3" stroke-width="2" stroke-linecap="round" stroke-linejoin="round"/>
</svg>
