<svg width="164" height="27" viewBox="0 0 164 27" fill="none" xmlns="http://www.w3.org/2000/svg">
<path d="M7.93185 13.4657L16.8854 22.4193V17.6252L12.7259 13.4657L16.8854 9.30611V4.51205L7.93185 13.4657Z" fill="#7D808E"/>
<path fill-rule="evenodd" clip-rule="evenodd" d="M0.176758 26.9313V0H27.1081V26.9313H0.176758ZM3.5608 3.38404V23.5473H23.7945V3.38404H3.5608Z" fill="#7D808E"/>
<path d="M37.0012 11.8855C40.0756 11.8855 41.5871 10.3053 41.5871 8.20992C41.5871 3.9332 35.0088 5.15267 35.0088 3.34923C35.0088 2.66221 35.5928 2.21564 36.6233 2.21564C37.7913 2.21564 39.0279 2.61068 39.9554 3.46946L41.3123 1.64885C40.1787 0.601137 38.6672 0.0515181 36.8466 0.0515181C34.1501 0.0515181 32.5012 1.63167 32.5012 3.53816C32.5012 7.84923 39.0966 6.45801 39.0966 8.45038C39.0966 9.12022 38.4611 9.72137 37.1043 9.72137C35.5241 9.72137 34.2703 9 33.463 8.15839L32.1233 10.0649C33.2054 11.1469 34.7856 11.8855 37.0012 11.8855Z" fill="#7D808E"/>
<path d="M48.8456 11.6794V6.99045L53.2254 0.223274H50.4602L47.6262 4.80915L44.7922 0.223274H42.0098L46.4067 6.99045V11.6794H48.8456Z" fill="#7D808E"/>
<path d="M64.5361 11.6794V0.223274H62.0971V7.41984L56.7899 0.223274H54.2823V11.6794H56.7212V4.20801L62.183 11.6794H64.5361Z" fill="#7D808E"/>
<path d="M74.9018 11.6794V9.53244H69.2339V6.92175H74.7816V4.7748H69.2339V2.37022H74.9018V0.223274H66.7949V11.6794H74.9018Z" fill="#7D808E"/>
<path d="M86.1004 11.6794L83.5069 7.31679C84.7435 7.0248 86.0317 5.92557 86.0317 3.91602C86.0317 1.78625 84.5546 0.223274 82.1672 0.223274H76.8084V11.6794H79.2474V7.60877H81.0336L83.2836 11.6794H86.1004ZM81.8237 5.46183H79.2474V2.37022H81.8237C82.7855 2.37022 83.5241 2.95419 83.5241 3.89885C83.5241 4.87786 82.7855 5.46183 81.8237 5.46183Z" fill="#7D808E"/>
<path d="M93.1867 11.8855C96.8451 11.8855 99.0607 9.41221 99.0607 5.32442H92.8088V7.47137H96.3813C96.0207 8.67366 95.0416 9.72137 93.41 9.72137C91.3145 9.72137 89.8031 8.12404 89.8031 5.95992C89.8031 3.79579 91.3145 2.19847 93.41 2.19847C94.6123 2.19847 95.5913 2.88549 96.1237 3.69274L98.1332 2.5935C97.2745 1.23663 95.7802 0.0343428 93.41 0.0343428C90.0435 0.0343428 87.2954 2.33587 87.2954 5.95992C87.2954 9.56679 90.0435 11.8855 93.1867 11.8855Z" fill="#7D808E"/>
<path d="M105.505 11.6794V6.99045L109.885 0.223274H107.119L104.285 4.80915L101.451 0.223274H98.669L103.066 6.99045V11.6794H105.505Z" fill="#7D808E"/>
<path d="M44.2665 26.7939L47.5298 15.3378H44.7989L42.7894 23.6164L40.6253 15.3378H38.7188L36.5375 23.6164L34.5279 15.3378H31.797L35.0775 26.7939H37.6711L39.6634 18.9275L41.673 26.7939H44.2665Z" fill="#7D808E"/>
<path d="M53.7893 27C57.2416 27 59.7664 24.5267 59.7664 21.0744C59.7664 17.6221 57.2416 15.1489 53.7893 15.1489C50.3198 15.1489 47.795 17.6221 47.795 21.0744C47.795 24.5267 50.3198 27 53.7893 27ZM53.7893 24.8359C51.6595 24.8359 50.3026 23.2042 50.3026 21.0744C50.3026 18.9275 51.6595 17.313 53.7893 17.313C55.9019 17.313 57.2587 18.9275 57.2587 21.0744C57.2587 23.2042 55.9019 24.8359 53.7893 24.8359Z" fill="#7D808E"/>
<path d="M73.8958 26.7939V15.3378H70.4607L67.6783 22.5L64.8958 15.3378H61.4779V26.7939H63.9168V18.5324L67.1458 26.7939H68.2107L71.4397 18.5324V26.7939H73.8958Z" fill="#7D808E"/>
<path d="M86.8543 26.7939L82.4401 15.3378H79.3829L74.9688 26.7939H77.734L78.4554 24.8531H83.3676L84.089 26.7939H86.8543ZM82.6978 22.7061H79.1253L80.9115 17.7767L82.6978 22.7061Z" fill="#7D808E"/>
<path d="M98.166 26.7939V15.3378H95.727V22.5344L90.4198 15.3378H87.9122V26.7939H90.3511V19.3225L95.8129 26.7939H98.166Z" fill="#7D808E"/>
<path d="M107.275 26.7939V22.0363H112.823V19.8893H107.275V17.4847H112.943V15.3378H104.836V26.7939H107.275Z" fill="#7D808E"/>
<path d="M120.093 27C123.545 27 126.07 24.5267 126.07 21.0744C126.07 17.6221 123.545 15.1489 120.093 15.1489C116.624 15.1489 114.099 17.6221 114.099 21.0744C114.099 24.5267 116.624 27 120.093 27ZM120.093 24.8359C117.963 24.8359 116.606 23.2042 116.606 21.0744C116.606 18.9275 117.963 17.313 120.093 17.313C122.206 17.313 123.562 18.9275 123.562 21.0744C123.562 23.2042 122.206 24.8359 120.093 24.8359Z" fill="#7D808E"/>
<path d="M137.074 26.7939L134.48 22.4313C135.717 22.1393 137.005 21.0401 137.005 19.0305C137.005 16.9008 135.528 15.3378 133.14 15.3378H127.782V26.7939H130.221V22.7233H132.007L134.257 26.7939H137.074ZM132.797 20.5763H130.221V17.4847H132.797C133.759 17.4847 134.497 18.0687 134.497 19.0134C134.497 19.9924 133.759 20.5763 132.797 20.5763Z" fill="#7D808E"/>
<path d="M143.988 27C147.475 27 149.158 25.042 149.158 22.208V15.3378H146.668V22.1393C146.668 23.7366 145.757 24.8359 143.988 24.8359C142.219 24.8359 141.292 23.7366 141.292 22.1393V15.3378H138.818V22.208C138.818 25.042 140.501 27 143.988 27Z" fill="#7D808E"/>
<path d="M163.85 26.7939V15.3378H160.414L157.632 22.5L154.85 15.3378H151.432V26.7939H153.871V18.5324L157.1 26.7939H158.164L161.393 18.5324V26.7939H163.85Z" fill="#7D808E"/>
</svg>
