<svg width="223" height="54" viewBox="0 0 223 54" fill="none" xmlns="http://www.w3.org/2000/svg">
<path d="M32.1708 42.8301L16.1208 26.78L32.1708 10.73V21.4301L26.8208 26.78L32.1708 32.13V42.8301ZM53.6008 0V53.55H0.0507812V0H53.6008ZM45.9408 7.65002H7.69078V45.9H45.9408V7.65002Z" fill="#FF2BA9"/>
<path d="M71.871 17.2098C71.871 16.7798 71.671 16.4098 71.261 16.0798C70.851 15.7598 70.331 15.4998 69.681 15.2898C69.031 15.0798 68.321 14.8598 67.531 14.6198C66.741 14.3798 65.961 14.0797 65.181 13.7197C64.401 13.3597 63.691 12.9198 63.051 12.4098C62.411 11.8998 61.881 11.2197 61.471 10.3597C61.061 9.49974 60.861 8.50976 60.861 7.37976C60.861 5.43976 61.701 3.73978 63.381 2.26978C65.061 0.799775 67.221 0.079834 69.841 0.079834C70.921 0.079834 71.941 0.199819 72.901 0.439819C73.861 0.679819 74.651 0.959795 75.261 1.28979C75.871 1.61979 76.411 1.94979 76.871 2.27979C77.331 2.60979 77.651 2.89978 77.831 3.14978L78.141 3.47974L74.401 7.38977C74.291 7.25977 74.131 7.08977 73.911 6.88977C73.691 6.68977 73.251 6.4098 72.571 6.0498C71.891 5.6998 71.201 5.51978 70.511 5.51978C69.781 5.51978 69.171 5.71976 68.691 6.12976C68.211 6.53976 67.961 7.0098 67.961 7.5498C67.961 7.9798 68.161 8.3498 68.571 8.6698C68.981 8.9898 69.501 9.24984 70.151 9.45984C70.801 9.66984 71.511 9.89977 72.281 10.1398C73.061 10.3798 73.841 10.6798 74.631 11.0398C75.421 11.3998 76.141 11.8397 76.781 12.3497C77.421 12.8597 77.951 13.5398 78.361 14.3998C78.771 15.2598 78.971 16.2498 78.971 17.3798C78.971 19.5798 78.101 21.4198 76.371 22.9198C74.641 24.4198 72.341 25.1698 69.471 25.1698C68.301 25.1698 67.171 25.0298 66.091 24.7498C65.011 24.4698 64.111 24.1297 63.411 23.7297C62.711 23.3297 62.091 22.9398 61.551 22.5398C61.011 22.1398 60.611 21.7998 60.361 21.5098L60.001 21.0997L63.721 17.2098C63.761 17.2798 63.841 17.3697 63.961 17.4797C64.081 17.5897 64.301 17.7897 64.641 18.0897C64.981 18.3897 65.331 18.6498 65.711 18.8798C66.091 19.1098 66.551 19.3097 67.121 19.4797C67.681 19.6597 68.251 19.7397 68.811 19.7397C69.711 19.7397 70.451 19.4898 71.021 18.9998C71.591 18.4998 71.871 17.9098 71.871 17.2098Z" fill="#002196"/>
<path d="M94.401 0.759766H101.351L92.881 16.0198V24.4897H86.441V16.0198L77.971 0.759766H84.921L89.671 9.90979L94.401 0.759766Z" fill="#002196"/>
<path d="M118.461 0.759766H124.901V24.4897H119.341L109.151 11.2698V24.4897H102.711V0.759766H108.301L118.461 13.9797V0.759766Z" fill="#002196"/>
<path d="M135.411 19.0698H147.611V24.4998H128.971V0.769775H147.271V6.19983H135.401V9.9198H144.551V15.0198H135.401V19.0698H135.411Z" fill="#002196"/>
<path d="M150.321 24.4897V0.759766H161.511C164.011 0.759766 166.081 1.53973 167.711 3.09973C169.341 4.65973 170.151 6.59978 170.151 8.89978C170.151 9.84978 170.011 10.7298 169.731 11.5598C169.451 12.3798 169.111 13.0498 168.711 13.5598C168.311 14.0698 167.921 14.5098 167.521 14.8698C167.121 15.2298 166.791 15.4697 166.531 15.6097L166.081 15.8597L171.001 24.4998H164.231L160.161 17.0398H156.771V24.4998H150.321V24.4897ZM163.001 10.5897C163.471 10.1397 163.711 9.56977 163.711 8.88977C163.711 8.20977 163.471 7.64983 163.001 7.19983C162.531 6.74983 161.911 6.52979 161.161 6.52979H156.761V11.2598H161.161C161.911 11.2698 162.531 11.0397 163.001 10.5897Z" fill="#002196"/>
<path d="M185.231 25.1698C181.551 25.1698 178.421 23.9397 175.851 21.4697C173.281 18.9997 172.001 16.0598 172.001 12.6198C172.001 9.18975 173.281 6.23978 175.851 3.76978C178.411 1.29978 181.541 0.0698242 185.231 0.0698242C186.501 0.0698242 187.711 0.239824 188.861 0.569824C190.011 0.899824 190.951 1.29977 191.701 1.75977C192.451 2.21977 193.101 2.68978 193.651 3.14978C194.211 3.60978 194.611 4.00972 194.851 4.33972L195.231 4.81982L191.321 8.88977C191.251 8.79977 191.161 8.68981 191.061 8.5498C190.951 8.4098 190.701 8.16982 190.301 7.81982C189.901 7.46982 189.491 7.15977 189.061 6.88977C188.631 6.61977 188.061 6.37979 187.361 6.15979C186.661 5.94979 185.951 5.83972 185.231 5.83972C183.291 5.83972 181.671 6.47978 180.381 7.76978C179.091 9.05978 178.441 10.6697 178.441 12.6097C178.441 14.5497 179.091 16.1698 180.381 17.4598C181.671 18.7498 183.291 19.3998 185.231 19.3998C186.051 19.3998 186.791 19.2798 187.461 19.0298C188.131 18.7798 188.611 18.5197 188.881 18.2397L189.281 17.8798V15.3298H185.561V11.2598H195.741V20.4098C195.651 20.5398 195.501 20.7198 195.291 20.9298C195.081 21.1398 194.641 21.5298 193.981 22.0698C193.321 22.6198 192.611 23.0998 191.851 23.5198C191.091 23.9398 190.111 24.3198 188.921 24.6498C187.731 24.9998 186.501 25.1698 185.231 25.1698Z" fill="#002196"/>
<path d="M212.491 0.759766H219.441L210.971 16.0198V24.4897H204.531V16.0198L196.061 0.759766H203.011L207.761 9.90979L212.491 0.759766Z" fill="#002196"/>
<path d="M216.961 23.9498C216.351 23.3698 216.041 22.6398 216.041 21.7798C216.041 20.9198 216.351 20.1997 216.961 19.6097C217.571 19.0197 218.341 18.7297 219.261 18.7297C220.181 18.7297 220.951 19.0197 221.561 19.6097C222.171 20.1997 222.481 20.9198 222.481 21.7798C222.481 22.6398 222.171 23.3598 221.561 23.9498C220.951 24.5398 220.181 24.8298 219.261 24.8298C218.341 24.8298 217.581 24.5298 216.961 23.9498Z" fill="#FF2BA9"/>
<path d="M62.221 29.5897H70.531C73.831 29.5897 76.661 30.7597 79.021 33.0997C81.381 35.4397 82.561 38.2298 82.561 41.4598C82.561 44.6898 81.381 47.4798 79.021 49.8198C76.661 52.1598 73.831 53.3298 70.531 53.3298H62.221V29.5897ZM70.531 32.9797H65.951V49.9298H70.531C72.841 49.9298 74.791 49.1097 76.411 47.4697C78.021 45.8297 78.831 43.8298 78.831 41.4498C78.831 39.0698 78.021 37.0698 76.411 35.4298C74.791 33.7998 72.831 32.9797 70.531 32.9797Z" fill="#002196"/>
<path d="M86.611 53.3198V29.5897H90.331V53.3198H86.611Z" fill="#002196"/>
<path d="M108.791 40.7798H117.101V49.2498C117.011 49.3598 116.881 49.5197 116.691 49.7197C116.501 49.9197 116.101 50.2798 115.471 50.7998C114.841 51.3098 114.161 51.7598 113.431 52.1398C112.711 52.5198 111.761 52.8698 110.581 53.1798C109.411 53.4898 108.191 53.6498 106.931 53.6498C103.381 53.6498 100.401 52.4697 97.991 50.1097C95.581 47.7497 94.381 44.8598 94.381 41.4498C94.381 38.0398 95.581 35.1598 97.991 32.7898C100.401 30.4198 103.371 29.2498 106.931 29.2498C108.131 29.2498 109.291 29.4097 110.391 29.7197C111.491 30.0297 112.411 30.4198 113.131 30.8698C113.851 31.3198 114.481 31.7698 115.021 32.2098C115.561 32.6498 115.961 33.0297 116.211 33.3497L116.571 33.8098L114.201 36.1898C114.131 36.0998 114.041 35.9798 113.911 35.8198C113.781 35.6598 113.491 35.3698 113.041 34.9498C112.591 34.5298 112.101 34.1698 111.581 33.8698C111.061 33.5698 110.391 33.2898 109.551 33.0298C108.721 32.7698 107.841 32.6398 106.911 32.6398C104.451 32.6398 102.361 33.4898 100.651 35.1998C98.941 36.8998 98.081 38.9898 98.081 41.4498C98.081 43.9098 98.931 45.9998 100.641 47.7098C102.341 49.4198 104.431 50.2798 106.901 50.2798C107.721 50.2798 108.501 50.1998 109.241 50.0398C109.981 49.8798 110.591 49.6798 111.071 49.4398C111.551 49.1998 111.961 48.9697 112.321 48.7297C112.681 48.4897 112.941 48.2998 113.091 48.1398L113.341 47.8898V44.1698H108.761V40.7798H108.791Z" fill="#002196"/>
<path d="M121.841 53.3198V29.5897H125.561V53.3198H121.841Z" fill="#002196"/>
<path d="M128.261 29.5897H146.221V32.9797H139.101V53.3198H135.381V32.9797H128.261V29.5897Z" fill="#002196"/>
<path d="M144.181 53.3198L154.011 29.5897H157.731L167.561 53.3198H163.671L161.121 47.0498H150.611L148.061 53.3198H144.181ZM155.881 33.8298L151.971 43.6598H159.761L155.881 33.8298Z" fill="#002196"/>
<path d="M185.521 53.3198H170.281V29.5897H174.001V49.9298H185.521V53.3198Z" fill="#002196"/>
</svg>
