<svg width="213" height="72" viewBox="0 0 213 72" fill="none" xmlns="http://www.w3.org/2000/svg">
<path d="M42.7732 56.9545L21.4253 35.6065L42.7732 14.2588V28.4907L35.6573 35.6065L42.7732 42.7226V56.9545ZM71.2771 0V71.2263H0.0507812V0H71.2771ZM61.0886 10.1754H10.2127V61.0513H61.0886V10.1754Z" fill="#CF2EE5"/>
<path d="M86.8544 14.6662C86.8544 14.2995 86.6839 13.9839 86.3343 13.7025C85.9847 13.4297 85.5413 13.208 84.9871 13.0289C84.4329 12.8499 83.8275 12.6623 83.1539 12.4577C82.4803 12.2531 81.8152 11.9974 81.1502 11.6904C80.4851 11.3834 79.8797 11.0082 79.334 10.5734C78.7883 10.1385 78.3364 9.55867 77.9868 8.82538C77.6372 8.0921 77.4667 7.24799 77.4667 6.28449C77.4667 4.63033 78.1829 3.18073 79.6154 1.92732C81.0478 0.673921 82.8896 0.0600586 85.1235 0.0600586C86.0444 0.0600586 86.9141 0.162469 87.7327 0.367106C88.5512 0.571743 89.2248 0.810362 89.7449 1.09174C90.265 1.37311 90.7255 1.65448 91.1177 1.93586C91.5099 2.21724 91.7828 2.46461 91.9362 2.67777L92.2006 2.95921L89.0116 6.29302C88.9179 6.18218 88.7814 6.03722 88.5938 5.86669C88.4063 5.69616 88.0311 5.45734 87.4513 5.15039C86.8715 4.85196 86.2831 4.69845 85.6948 4.69845C85.0724 4.69845 84.5523 4.86908 84.143 5.21867C83.7337 5.56825 83.5205 5.96894 83.5205 6.42937C83.5205 6.79601 83.6911 7.11159 84.0407 7.38444C84.3903 7.65729 84.8336 7.87902 85.3879 8.05808C85.9421 8.23713 86.5475 8.43319 87.204 8.63782C87.8691 8.84246 88.5342 9.09817 89.2078 9.40513C89.8813 9.71209 90.4953 10.0873 91.041 10.5222C91.5867 10.957 92.0386 11.5369 92.3882 12.2701C92.7377 13.0034 92.9083 13.8475 92.9083 14.811C92.9083 16.6869 92.1665 18.2558 90.6914 19.5348C89.2163 20.8138 87.2552 21.4533 84.808 21.4533C83.8104 21.4533 82.8469 21.3337 81.9261 21.095C81.0052 20.8563 80.2378 20.5665 79.641 20.2255C79.0441 19.8844 78.5155 19.5517 78.055 19.2107C77.5946 18.8696 77.2535 18.5797 77.0404 18.3324L76.7334 17.9829L79.9053 14.6662C79.9394 14.7258 80.0076 14.8026 80.1099 14.8964C80.2122 14.9902 80.3998 15.1606 80.6897 15.4164C80.9796 15.6722 81.2781 15.8939 81.6021 16.09C81.9261 16.2861 82.3183 16.4567 82.8043 16.6017C83.2818 16.7552 83.7678 16.8232 84.2453 16.8232C85.0127 16.8232 85.6437 16.61 86.1297 16.1922C86.6157 15.7744 86.8544 15.263 86.8544 14.6662Z" fill="#6200AD"/>
<path d="M106.065 0.639893H111.991L104.769 13.6514V20.8734H99.2776V13.6514L92.0556 0.639893H97.9816L102.032 8.44181L106.065 0.639893Z" fill="#6200AD"/>
<path d="M126.58 0.639893H132.071V20.8734H127.33L118.641 9.60131V20.8734H113.15V0.639893H117.917L126.58 11.9122V0.639893Z" fill="#6200AD"/>
<path d="M141.032 16.252H151.435V20.8818H135.541V0.648315H151.145V5.27838H141.024V8.45024H148.826V12.7987H141.024V16.252H141.032Z" fill="#6200AD"/>
<path d="M153.745 20.8818V0.648315H163.286C165.418 0.648315 167.183 1.31346 168.573 2.6436C169.963 3.97375 170.653 5.62794 170.653 7.58905C170.653 8.39907 170.534 9.14933 170.295 9.85704C170.057 10.5562 169.767 11.1275 169.426 11.5623C169.085 11.9972 168.752 12.3724 168.411 12.6794C168.07 12.9863 167.788 13.191 167.567 13.3103L167.183 13.5235L171.378 20.8904H165.606L162.135 14.5296H159.245V20.8904H153.745V20.8818ZM164.557 9.02999C164.958 8.64629 165.162 8.16032 165.162 7.58051C165.162 7.00071 164.958 6.52327 164.557 6.13958C164.156 5.75588 163.627 5.56815 162.988 5.56815H159.236V9.6012H162.988C163.627 9.6012 164.156 9.41368 164.557 9.02999Z" fill="#6200AD"/>
<path d="M183.511 21.4618C180.374 21.4618 177.705 20.4131 175.514 18.307C173.322 16.201 172.231 13.6941 172.231 10.7609C172.231 7.83632 173.322 5.3209 175.514 3.21484C177.696 1.10878 180.365 0.0600586 183.511 0.0600586C184.594 0.0600586 185.626 0.20501 186.607 0.486386C187.587 0.767763 188.389 1.10877 189.028 1.501C189.668 1.89322 190.222 2.29408 190.691 2.6863C191.168 3.07853 191.509 3.41954 191.714 3.70091L192.038 4.11017L188.704 7.58054C188.644 7.5038 188.568 7.40993 188.482 7.29056C188.389 7.17119 188.176 6.96657 187.834 6.66814C187.493 6.36971 187.144 6.10544 186.777 5.87523C186.411 5.64501 185.925 5.44039 185.328 5.25281C184.731 5.07375 184.125 4.9799 183.511 4.9799C181.857 4.9799 180.476 5.52554 179.376 6.62546C178.276 7.72539 177.722 9.09824 177.722 10.7524C177.722 12.4065 178.276 13.7879 179.376 14.8879C180.476 15.9878 181.857 16.542 183.511 16.542C184.211 16.542 184.842 16.4395 185.413 16.2264C185.984 16.0132 186.393 15.7915 186.624 15.5527L186.965 15.2459V13.0716H183.793V9.60122H192.473V17.4031C192.396 17.514 192.268 17.6675 192.089 17.8465C191.91 18.0256 191.535 18.358 190.972 18.8185C190.409 19.2874 189.804 19.6967 189.156 20.0548C188.508 20.4129 187.672 20.737 186.658 21.0184C185.643 21.3168 184.594 21.4618 183.511 21.4618Z" fill="#6200AD"/>
<path d="M206.755 0.639893H212.681L205.459 13.6514V20.8734H199.968V13.6514L192.746 0.639893H198.672L202.722 8.44181L206.755 0.639893Z" fill="#6200AD"/>
<path d="M88.1857 46.2932C85.0479 46.2932 82.3791 45.2445 80.1878 43.1384C77.9964 41.0324 76.905 38.5255 76.905 35.5923C76.905 32.6677 77.9964 30.1523 80.1878 28.0463C82.3706 25.9402 85.0394 24.8915 88.1857 24.8915C89.2686 24.8915 90.3003 25.0364 91.2808 25.3178C92.2614 25.5992 93.0629 25.9402 93.7024 26.3324C94.3333 26.7246 94.8876 27.1255 95.3651 27.5177C95.8425 27.9099 96.1836 28.251 96.3882 28.5323L96.7122 28.9416L93.3784 32.412C93.3187 32.3352 93.2419 32.2414 93.1567 32.122C93.0629 32.0026 92.8497 31.798 92.5087 31.4996C92.1676 31.2011 91.818 30.9369 91.4514 30.7066C91.0847 30.4764 90.5987 30.2718 90.0018 30.0842C89.405 29.9052 88.7996 29.8113 88.1857 29.8113C86.5315 29.8113 85.1502 30.357 84.0503 31.4569C82.9504 32.5568 82.3961 33.9297 82.3961 35.5838C82.3961 37.238 82.9504 38.6194 84.0503 39.7193C85.1502 40.8192 86.5315 41.3734 88.1857 41.3734C88.8849 41.3734 89.5158 41.271 90.0871 41.0578C90.6584 40.8446 91.0677 40.6229 91.2979 40.3842L91.639 40.0773V37.903H88.4671V34.4326H97.1471V42.2346C97.0704 42.3454 96.9425 42.4989 96.7634 42.678C96.5843 42.857 96.2092 43.1895 95.6464 43.6499C95.0837 44.1189 94.4698 44.5281 93.8217 44.8862C93.1737 45.2443 92.3381 45.5684 91.3234 45.8498C90.3173 46.1482 89.2686 46.2932 88.1857 46.2932Z" fill="#6200AD"/>
<path d="M114.763 45.7132H100.31V25.4797H105.802V40.8019H114.763V45.7132Z" fill="#6200AD"/>
<path d="M133.428 28.0548C135.619 30.1609 136.71 32.6763 136.71 35.6009C136.71 38.5255 135.619 41.0407 133.428 43.1468C131.236 45.2528 128.576 46.3018 125.438 46.3018C122.3 46.3018 119.64 45.2528 117.449 43.1468C115.258 41.0407 114.166 38.534 114.166 35.6009C114.166 32.6763 115.258 30.1609 117.449 28.0548C119.64 25.9487 122.3 24.9 125.438 24.9C128.576 24.9 131.236 25.9487 133.428 28.0548ZM121.422 31.4654C120.339 32.5654 119.802 33.9382 119.802 35.5924C119.802 37.2465 120.339 38.6279 121.422 39.7278C122.505 40.8277 123.844 41.3819 125.447 41.3819C127.05 41.3819 128.388 40.8363 129.463 39.7278C130.537 38.6279 131.074 37.2465 131.074 35.5924C131.074 33.9382 130.537 32.5568 129.463 31.4654C128.388 30.3655 127.05 29.8199 125.447 29.8199C123.844 29.8199 122.505 30.3655 121.422 31.4654Z" fill="#6200AD"/>
<path d="M148.698 45.7132H139.021V25.4797H148.118C150.199 25.4797 151.87 26.0085 153.141 27.0743C154.411 28.1401 155.042 29.3849 155.042 30.8259C155.042 31.3801 154.957 31.9089 154.778 32.4119C154.599 32.915 154.385 33.3157 154.13 33.6226C153.874 33.9211 153.627 34.1853 153.371 34.407C153.124 34.6287 152.902 34.7822 152.714 34.876L152.45 35.0211C152.544 35.0552 152.672 35.1149 152.842 35.1831C153.013 35.2513 153.294 35.4219 153.712 35.6777C154.13 35.9335 154.496 36.2317 154.812 36.5643C155.136 36.8968 155.417 37.3488 155.682 37.9201C155.937 38.4913 156.074 39.1223 156.074 39.7959C156.074 41.3733 155.383 42.7632 154.01 43.9484C152.62 45.1165 150.855 45.7132 148.698 45.7132ZM147.547 29.8198H144.512V33.2731H147.547C148.118 33.2731 148.579 33.1196 148.92 32.8041C149.261 32.4886 149.432 32.0709 149.432 31.5507C149.432 31.0306 149.261 30.6128 148.92 30.2974C148.579 29.9819 148.118 29.8198 147.547 29.8198ZM144.512 41.3819H148.263C148.903 41.3819 149.423 41.1856 149.832 40.8019C150.242 40.4182 150.438 39.9323 150.438 39.3525C150.438 38.7727 150.233 38.2952 149.832 37.903C149.432 37.5193 148.903 37.3232 148.263 37.3232H144.512V41.3819Z" fill="#6200AD"/>
<path d="M169.504 41.3819H162.853L161.412 45.7132H155.486L163.151 25.4797H169.222L176.888 45.7132H170.962L169.504 41.3819ZM168.063 37.0503L166.187 31.1244L164.311 37.0503H168.063Z" fill="#6200AD"/>
<path d="M192.474 45.7132H178.021V25.4797H183.512V40.8019H192.474V45.7132Z" fill="#6200AD"/>
<path d="M198.262 45.7133C197.487 45.7133 196.839 45.449 196.301 44.9118C195.764 44.3746 195.5 43.7352 195.5 42.9763C195.5 42.226 195.773 41.5779 196.318 41.0408C196.864 40.5036 197.512 40.2393 198.271 40.2393C199.03 40.2393 199.669 40.5036 200.207 41.0408C200.744 41.5779 201.008 42.2174 201.008 42.9763C201.008 43.7352 200.744 44.3746 200.207 44.9118C199.661 45.4404 199.013 45.7133 198.262 45.7133Z" fill="#CF2EE5"/>
<path d="M77.4558 50.9796H92.7695V53.8702H86.6985V71.2131H83.5267V53.8702H77.4558V50.9796Z" fill="#6200AD"/>
<path d="M95.0887 71.2217V50.9882H103.615C105.491 50.9882 107.043 51.5851 108.271 52.7788C109.507 53.9725 110.121 55.4476 110.121 57.2126C110.121 58.0397 109.976 58.8156 109.695 59.5318C109.413 60.248 109.072 60.8193 108.68 61.2286C108.288 61.6378 107.887 62.0045 107.495 62.3114C107.103 62.6184 106.762 62.8316 106.48 62.9509L106.071 63.1385L110.701 71.2217H107.23L102.899 63.4199H98.2691V71.2217H95.0887ZM105.977 59.5659C106.608 58.935 106.932 58.142 106.932 57.1955C106.932 56.2491 106.617 55.4561 105.977 54.8251C105.338 54.1856 104.553 53.8702 103.615 53.8702H98.2691V60.5123H103.615C104.553 60.5208 105.338 60.2054 105.977 59.5659Z" fill="#6200AD"/>
<path d="M111.835 71.2217L120.217 50.9882H123.388L131.77 71.2217H128.453L126.279 65.8755H117.317L115.143 71.2217H111.835ZM121.811 54.5949L118.477 62.9765H125.119L121.811 54.5949Z" fill="#6200AD"/>
<path d="M134.089 50.9796H141.175C143.988 50.9796 146.402 51.9772 148.414 53.9724C150.426 55.9677 151.432 58.3467 151.432 61.1007C151.432 63.8548 150.426 66.2336 148.414 68.2288C146.402 70.224 143.988 71.2216 141.175 71.2216H134.089V50.9796ZM141.175 53.8786H137.27V68.3312H141.175C143.144 68.3312 144.807 67.6321 146.188 66.2337C147.561 64.8354 148.252 63.1301 148.252 61.1007C148.252 59.0714 147.561 57.3661 146.188 55.9677C144.816 54.5694 143.144 53.8786 141.175 53.8786Z" fill="#6200AD"/>
<path d="M158.066 68.3227H169.483V71.2131H154.894V50.9796H169.201V53.8702H158.066V59.2162H166.882V62.1068H158.066V68.3227Z" fill="#6200AD"/>
</svg>
