<svg width="223" height="54" viewBox="0 0 223 54" fill="none" xmlns="http://www.w3.org/2000/svg">
<path d="M32.1808 32.13L26.8308 26.78L32.1808 21.43V10.73L16.1308 26.78L32.1808 42.83V32.13Z" fill="#00B23B"/>
<path d="M0.0507812 0V53.55H53.6008V0H0.0507812ZM45.9508 45.91H7.70078V7.65H45.9508V45.91Z" fill="#00B23B"/>
<path d="M71.8807 17.2103C71.8807 16.7803 71.6807 16.4003 71.2707 16.0803C70.8607 15.7603 70.3407 15.5003 69.6908 15.2903C69.0408 15.0803 68.3307 14.8603 67.5407 14.6203C66.7507 14.3803 65.9707 14.0803 65.1908 13.7203C64.4108 13.3603 63.7007 12.9203 63.0607 12.4103C62.4107 11.9003 61.8907 11.2203 61.4807 10.3603C61.0707 9.50032 60.8707 8.51033 60.8707 7.38033C60.8707 5.44033 61.7107 3.74032 63.3907 2.27032C65.0707 0.800325 67.2307 0.0803223 69.8507 0.0803223C70.9307 0.0803223 71.9508 0.200323 72.9108 0.440323C73.8708 0.680323 74.6607 0.960321 75.2707 1.29032C75.8807 1.62032 76.4207 1.95032 76.8807 2.27032C77.3407 2.60032 77.6607 2.89032 77.8407 3.14032L78.1507 3.47032L74.4108 7.38033C74.3008 7.25033 74.1407 7.08033 73.9207 6.88033C73.7107 6.68033 73.2607 6.40032 72.5807 6.04032C71.9007 5.69032 71.2107 5.51032 70.5207 5.51032C69.7907 5.51032 69.1807 5.71032 68.7007 6.12032C68.2107 6.53032 67.9707 7.00032 67.9707 7.54032C67.9707 7.97032 68.1707 8.34032 68.5807 8.66032C68.9907 8.98032 69.5108 9.24032 70.1608 9.45033C70.8108 9.66033 71.5207 9.89033 72.2907 10.1303C73.0707 10.3703 73.8507 10.6703 74.6407 11.0303C75.4307 11.3903 76.1507 11.8303 76.7907 12.3403C77.4407 12.8503 77.9607 13.5303 78.3707 14.3903C78.7807 15.2503 78.9807 16.2403 78.9807 17.3703C78.9807 19.5703 78.1107 21.4103 76.3807 22.9103C74.6507 24.4103 72.3507 25.1603 69.4807 25.1603C68.3107 25.1603 67.1807 25.0203 66.1007 24.7403C65.0107 24.4603 64.1207 24.1203 63.4207 23.7203C62.7207 23.3203 62.1007 22.9303 61.5607 22.5303C61.0207 22.1303 60.6207 21.7903 60.3707 21.5003L60.0107 21.0903L63.7307 17.2003C63.7707 17.2703 63.8507 17.3503 63.9707 17.4703C64.0907 17.5903 64.3107 17.7803 64.6507 18.0803C64.9907 18.3803 65.3407 18.6403 65.7207 18.8703C66.1007 19.1003 66.5607 19.3003 67.1307 19.4703C67.6907 19.6503 68.2607 19.7303 68.8207 19.7303C69.7207 19.7303 70.4607 19.4803 71.0307 18.9903C71.6007 18.5003 71.8807 17.9103 71.8807 17.2103Z" fill="#002196"/>
<path d="M94.4108 0.760254H101.361L92.8907 16.0203V24.4903H86.4507V16.0203L77.9807 0.760254H84.9307L89.6807 9.91026L94.4108 0.760254Z" fill="#002196"/>
<path d="M118.471 0.760254H124.911V24.4903H119.351L109.161 11.2703V24.4903H102.721V0.760254H108.311L118.471 13.9803V0.760254Z" fill="#002196"/>
<path d="M135.421 19.0603H147.621V24.4903H128.981V0.760254H147.281V6.19025H135.411V9.91026H144.561V15.0103H135.411V19.0603H135.421Z" fill="#002196"/>
<path d="M150.331 24.4903V0.760254H161.521C164.021 0.760254 166.091 1.54026 167.721 3.10026C169.351 4.66026 170.161 6.59025 170.161 8.90025C170.161 9.85025 170.021 10.7303 169.741 11.5603C169.461 12.3903 169.121 13.0503 168.721 13.5603C168.321 14.0703 167.931 14.5103 167.531 14.8703C167.131 15.2303 166.801 15.4703 166.541 15.6103L166.091 15.8603L171.011 24.5003H164.241L160.171 17.0403H156.781V24.5003H150.331V24.4903ZM163.011 10.5903C163.481 10.1403 163.721 9.57025 163.721 8.89025C163.721 8.21025 163.481 7.65026 163.011 7.20026C162.541 6.75026 161.921 6.53025 161.171 6.53025H156.771V11.2603H161.171C161.921 11.2703 162.541 11.0403 163.011 10.5903Z" fill="#002196"/>
<path d="M185.241 25.1703C181.561 25.1703 178.431 23.9403 175.861 21.4703C173.291 19.0003 172.011 16.0603 172.011 12.6203C172.011 9.19032 173.291 6.24032 175.861 3.77032C178.421 1.30032 181.551 0.0703125 185.241 0.0703125C186.511 0.0703125 187.721 0.240312 188.871 0.570312C190.021 0.900313 190.961 1.30031 191.711 1.76031C192.461 2.22031 193.111 2.69031 193.661 3.15031C194.221 3.61031 194.621 4.01032 194.861 4.34032L195.241 4.82031L191.331 8.89031C191.261 8.80031 191.171 8.69032 191.071 8.55032C190.961 8.41032 190.711 8.17031 190.311 7.82031C189.911 7.47031 189.501 7.16031 189.071 6.89031C188.641 6.62031 188.071 6.38032 187.371 6.16032C186.671 5.94032 185.961 5.84032 185.241 5.84032C183.301 5.84032 181.681 6.48032 180.391 7.77032C179.101 9.06032 178.451 10.6703 178.451 12.6103C178.451 14.5503 179.101 16.1703 180.391 17.4603C181.681 18.7503 183.301 19.4003 185.241 19.4003C186.061 19.4003 186.801 19.2803 187.471 19.0303C188.141 18.7803 188.621 18.5203 188.891 18.2403L189.291 17.8803V15.3303H185.571V11.2603H195.751V20.4103C195.661 20.5403 195.511 20.7203 195.301 20.9303C195.091 21.1403 194.651 21.5303 193.991 22.0703C193.331 22.6203 192.621 23.1003 191.861 23.5203C191.101 23.9403 190.121 24.3203 188.931 24.6503C187.741 25.0003 186.511 25.1703 185.241 25.1703Z" fill="#002196"/>
<path d="M212.501 0.760254H219.451L210.981 16.0203V24.4903H204.541V16.0203L196.071 0.760254H203.021L207.771 9.91026L212.501 0.760254Z" fill="#002196"/>
<path d="M216.971 23.9503C216.361 23.3703 216.051 22.6403 216.051 21.7803C216.051 20.9203 216.361 20.2003 216.971 19.6103C217.581 19.0303 218.351 18.7303 219.271 18.7303C220.191 18.7303 220.961 19.0203 221.571 19.6103C222.181 20.1903 222.491 20.9203 222.491 21.7803C222.491 22.6403 222.181 23.3603 221.571 23.9503C220.961 24.5303 220.191 24.8303 219.271 24.8303C218.351 24.8203 217.591 24.5303 216.971 23.9503Z" fill="#00B23B"/>
<path d="M62.2307 29.5903H71.7107C73.9707 29.5903 75.8707 30.3303 77.4007 31.8203C78.9307 33.3003 79.6908 35.1103 79.6908 37.2303C79.6908 39.3503 78.9307 41.1603 77.4007 42.6303C75.8707 44.1103 73.9807 44.8503 71.7107 44.8503H65.9507V53.3203H62.2307V29.5903ZM71.7107 32.9803H65.9507V41.4503H71.7107C72.8807 41.4503 73.8807 41.0403 74.7107 40.2303C75.5407 39.4203 75.9507 38.4203 75.9507 37.2203C75.9507 36.0203 75.5407 35.0203 74.7107 34.2003C73.8807 33.3903 72.8807 32.9803 71.7107 32.9803Z" fill="#002196"/>
<path d="M78.9907 53.3203L88.8207 29.5903H92.5407L102.371 53.3203H98.4807L95.9307 47.0503H85.4207L82.8707 53.3203H78.9907ZM90.7007 33.8203L86.7907 43.6503H94.5807L90.7007 33.8203Z" fill="#002196"/>
<path d="M103.741 29.5903L110.181 40.9403L116.621 29.5903H120.691L112.031 44.8503V53.3203H108.311V44.8503L99.6707 29.5903H103.741Z" fill="#002196"/>
</svg>
