<svg width="40" height="40" viewBox="0 0 40 40" fill="none" xmlns="http://www.w3.org/2000/svg">
<path fill-rule="evenodd" clip-rule="evenodd" d="M28.0431 1.35303H34.192C36.736 1.35303 38.7998 3.43473 38.7998 6.00282V12.2032C38.7998 14.7693 36.736 16.853 34.192 16.853H28.0431C25.4971 16.853 23.4333 14.7693 23.4333 12.2032V6.00282C23.4333 3.43473 25.4971 1.35303 28.0431 1.35303Z" stroke="#FFB3B3" stroke-width="2" stroke-linecap="round" stroke-linejoin="round"/>
<path fill-rule="evenodd" clip-rule="evenodd" d="M5.76257 1.35303H11.9096C14.4555 1.35303 16.5193 3.43473 16.5193 6.00282V12.2032C16.5193 14.7693 14.4555 16.853 11.9096 16.853H5.76257C3.21659 16.853 1.1528 14.7693 1.1528 12.2032V6.00282C1.1528 3.43473 3.21659 1.35303 5.76257 1.35303Z" stroke="#FFB3B3" stroke-width="2" stroke-linecap="round" stroke-linejoin="round"/>
<path fill-rule="evenodd" clip-rule="evenodd" d="M5.76257 23.5002H11.9096C14.4555 23.5002 16.5193 25.5819 16.5193 28.152V34.3504C16.5193 36.9185 14.4555 39.0002 11.9096 39.0002H5.76257C3.21659 39.0002 1.1528 36.9185 1.1528 34.3504V28.152C1.1528 25.5819 3.21659 23.5002 5.76257 23.5002Z" stroke="#FFB3B3" stroke-width="2" stroke-linecap="round" stroke-linejoin="round"/>
<path fill-rule="evenodd" clip-rule="evenodd" d="M28.0431 23.5002H34.192C36.736 23.5002 38.7998 25.5819 38.7998 28.152V34.3504C38.7998 36.9185 36.736 39.0002 34.192 39.0002H28.0431C25.4971 39.0002 23.4333 36.9185 23.4333 34.3504V28.152C23.4333 25.5819 25.4971 23.5002 28.0431 23.5002Z" stroke="#FFB3B3" stroke-width="2" stroke-linecap="round" stroke-linejoin="round"/>
</svg>
