<svg width="230" height="26" viewBox="0 0 230 26" fill="none" xmlns="http://www.w3.org/2000/svg">
<path d="M0 0.214876V25.9284H25.6907V0.214876H0ZM22.4704 22.7052H3.22029V3.43802H22.4704V22.7052ZM15.9583 21.5592L7.44244 13.0358L15.9583 4.5124V9.02479L11.9508 13.0358L15.9583 17.0468V21.5592Z" fill="white"/>
<path d="M148.563 0.286501H147.632V25.7135H148.563V0.286501Z" fill="white"/>
<path d="M38.2856 3.93939L40.2178 0.286501C40.504 0.214876 40.9334 0.214876 41.3628 0.214876C41.7922 0.214876 42.15 0.214876 42.5078 0.286501L37.7131 8.95317C37.4269 9.02479 37.0691 9.02479 36.5681 9.02479C36.1388 9.02479 35.7094 9.02479 35.4231 8.95317L37.2122 5.80165L34.135 0.286501C34.4213 0.214876 34.8507 0.214876 35.28 0.214876C35.7094 0.214876 36.1388 0.214876 36.425 0.286501L38.2856 3.93939Z" fill="white"/>
<path d="M50.809 3.65289V0.286501C51.5246 0.143251 52.2402 0.143251 52.9558 0.286501V8.95317C52.2402 9.09642 51.5246 9.09642 50.809 8.95317V5.44353H47.2309V8.95317C46.5152 9.09642 45.7996 9.09642 45.084 8.95317V0.286501C45.7996 0.143251 46.5152 0.143251 47.2309 0.286501V3.65289H50.809Z" fill="white"/>
<path d="M63.8332 8.95317C63.1176 9.09642 62.402 9.09642 61.6864 8.95317V3.86777L57.6789 8.95317C57.1064 9.02479 56.6055 9.02479 56.033 8.95317V0.286501C56.7486 0.143251 57.4642 0.143251 58.1798 0.286501V5.3719L62.1873 0.286501C62.7598 0.214876 63.2607 0.214876 63.8332 0.286501V8.95317Z" fill="white"/>
<path d="M66.9104 0.286501H70.6316C71.4904 0.286501 72.1344 0.501377 72.6354 0.931129C73.1363 1.36088 73.4225 1.86226 73.4225 2.57851C73.4225 3.43802 72.9932 4.08264 72.206 4.5124C73.0647 4.87052 73.5657 5.58678 73.5657 6.51791C73.5657 8.02204 72.4207 8.95317 70.6316 8.95317H66.9104V0.286501ZM69.0573 2.07714V3.86777H70.4169C70.9894 3.86777 71.3472 3.58127 71.3472 3.00826C71.3472 2.43526 71.061 2.14876 70.4169 2.14876H69.0573V2.07714ZM69.0573 7.16253H70.5601C71.2041 7.16253 71.4904 6.87603 71.4904 6.2314C71.4904 5.6584 71.1325 5.30028 70.4885 5.30028H69.0573V7.16253Z" fill="white"/>
<path d="M78.5034 7.16253H82.3678C82.4393 7.73554 82.4393 8.30854 82.3678 8.95317H76.3566V0.286501H82.3678C82.4393 0.859504 82.4393 1.50413 82.3678 2.07714H78.5034V3.72452H81.9384C82.01 4.29752 82.01 4.94215 81.9384 5.51515H78.5034V7.16253Z" fill="white"/>
<path d="M88.5937 0.286501C89.5955 0.286501 90.3111 0.573003 90.9552 1.07438C91.5277 1.57576 91.8855 2.29201 91.8855 3.15152C91.8855 4.01102 91.5993 4.72727 90.9552 5.22865C90.3111 5.73003 89.5955 6.01653 88.5937 6.01653H87.3055V8.88154C86.5899 9.02479 85.8743 9.02479 85.1587 8.88154V0.286501H88.5937ZM87.3771 4.29752H88.6652C89.3093 4.29752 89.7387 3.93939 89.7387 3.15152C89.7387 2.36364 89.2377 2.00551 88.6652 2.00551H87.3771V4.29752Z" fill="white"/>
<path d="M101.833 6.51791C101.904 6.58953 101.904 6.94766 101.904 7.44904C101.904 7.95041 101.833 8.30854 101.833 8.45179C101.117 8.88154 100.258 9.09642 99.1848 9.09642C97.682 9.09642 96.537 8.66667 95.6067 7.80716C94.748 6.94766 94.247 5.87328 94.247 4.58402C94.247 3.29477 94.6764 2.22039 95.6067 1.36088C96.4655 0.501377 97.682 0.0716253 99.1848 0.0716253C100.187 0.0716253 101.117 0.286501 101.833 0.716253C101.904 0.859504 101.904 1.21763 101.904 1.71901C101.904 2.22039 101.904 2.50689 101.833 2.65014C100.974 2.07714 100.115 1.79063 99.3279 1.79063C98.5408 1.79063 97.8251 2.07714 97.3242 2.57851C96.7517 3.07989 96.537 3.72452 96.537 4.58402C96.537 5.44353 96.8233 6.08815 97.3242 6.58953C97.8967 7.09091 98.5408 7.30579 99.3279 7.30579C100.115 7.37741 100.902 7.09091 101.833 6.51791Z" fill="white"/>
<path d="M112.638 8.95317C111.923 9.09642 111.207 9.09642 110.492 8.95317V3.86777L106.484 8.95317C105.912 9.02479 105.411 9.02479 104.838 8.95317V0.286501C105.554 0.143251 106.269 0.143251 106.985 0.286501V5.3719L110.993 0.286501C111.565 0.214876 112.066 0.214876 112.638 0.286501V8.95317Z" fill="white"/>
<path d="M122.085 0.286501C122.156 0.859504 122.156 1.50413 122.085 2.07714H119.723V8.95317C119.007 9.09642 118.292 9.09642 117.576 8.95317V2.07714H115.215C115.143 1.50413 115.143 0.859504 115.215 0.286501H122.085Z" fill="white"/>
<path d="M126.808 7.16253H130.672C130.744 7.73554 130.744 8.30854 130.672 8.95317H124.661V0.286501H130.672C130.744 0.859504 130.744 1.50413 130.672 2.07714H126.808V3.72452H130.243C130.314 4.29752 130.314 4.94215 130.243 5.51515H126.808V7.16253Z" fill="white"/>
<path d="M140.047 0.286501C140.118 0.859504 140.118 1.50413 140.047 2.07714H137.685V8.95317C136.97 9.09642 136.254 9.09642 135.538 8.95317V2.07714H133.177C133.105 1.50413 133.105 0.859504 133.177 0.286501H140.047Z" fill="white"/>
<path d="M45.4418 21.9174C45.5134 22.0606 45.5849 22.562 45.5849 23.3499C45.5849 24.1377 45.5134 24.7107 45.4418 24.9256C44.2968 25.6419 42.9372 26 41.2912 26C39.0012 26 37.1406 25.2837 35.7094 23.9945C34.3497 22.6336 33.6341 20.9862 33.6341 18.9807C33.6341 16.9752 34.3497 15.3278 35.7094 13.9669C37.0691 12.6061 38.9297 11.9614 41.2912 11.9614C42.9372 11.9614 44.2968 12.3196 45.4418 13.0358C45.5134 13.2507 45.5849 13.7521 45.5849 14.6116C45.5849 15.3994 45.5134 15.9008 45.4418 16.0441C44.0821 15.1846 42.7225 14.7548 41.5059 14.7548C40.2178 14.7548 39.2159 15.1846 38.3572 15.9725C37.4984 16.7603 37.0691 17.7631 37.0691 19.124C37.0691 20.4132 37.4984 21.4876 38.3572 22.2755C39.2159 23.0634 40.2178 23.4215 41.5059 23.4215C42.7225 23.2066 44.0106 22.7052 45.4418 21.9174Z" fill="white"/>
<path d="M60.6129 25.6419C59.5395 25.8567 58.3945 25.8567 57.2495 25.6419V17.6915L50.9521 25.6419C50.0933 25.7851 49.2346 25.7851 48.3759 25.6419V12.1047C49.4493 11.8898 50.5943 11.8898 51.7393 12.1047V20.0551L57.9652 12.1047C58.8239 11.9614 59.6826 11.9614 60.5414 12.1047V25.6419H60.6129Z" fill="white"/>
<path d="M72.3491 17.405V12.1047C73.4225 11.8898 74.5675 11.8898 75.7125 12.1047V25.6419C74.6391 25.8567 73.4941 25.8567 72.3491 25.6419V20.1983H66.7673V25.6419C65.6938 25.8567 64.5489 25.8567 63.4039 25.6419V12.1047C64.4773 11.8898 65.6223 11.8898 66.7673 12.1047V17.405H72.3491Z" fill="white"/>
<path d="M81.9384 22.8485H88.0212C88.1643 23.7796 88.1643 24.7107 88.0212 25.6419H78.575V12.1047H88.0212C88.1643 13.0358 88.1643 13.9669 88.0212 14.8981H81.9384V17.405H87.3055C87.4487 18.3361 87.4487 19.2672 87.3055 20.1983H81.9384V22.8485Z" fill="white"/>
<path d="M95.6783 12.1047C97.1811 12.1047 98.3976 12.5344 99.3279 13.3223C100.258 14.1818 100.759 15.2562 100.759 16.6171C100.759 17.978 100.258 19.0523 99.3279 19.9118C98.3976 20.7713 97.1811 21.1295 95.6783 21.1295H93.6746V25.5702C92.6011 25.7851 91.4561 25.7851 90.3111 25.5702V12.1047H95.6783ZM93.6746 18.4077H95.6783C96.6802 18.4077 97.3958 17.8347 97.3958 16.6171C97.3958 15.4711 96.6802 14.8264 95.6783 14.8264H93.6746V18.4077Z" fill="white"/>
<path d="M111.994 12.1047C112.138 13.0358 112.138 13.9669 111.994 14.8981H106.413V25.6419C105.339 25.8567 104.194 25.8567 103.049 25.6419V12.1047H111.994Z" fill="white"/>
<path d="M126.45 25.6419C125.376 25.8567 124.231 25.8567 123.087 25.6419V17.6915L116.789 25.6419C115.93 25.7851 115.072 25.7851 114.213 25.6419V12.1047C115.286 11.8898 116.431 11.8898 117.576 12.1047V20.0551L123.874 12.1047C124.732 11.9614 125.591 11.9614 126.45 12.1047V25.6419Z" fill="white"/>
<path d="M139.76 12.1047V25.6419C138.687 25.8567 137.542 25.8567 136.397 25.6419V21.0579H135.109L132.103 25.6419C131.602 25.7135 131.03 25.7851 130.243 25.7851C129.527 25.7851 128.955 25.7135 128.454 25.6419L131.745 20.5565C130.171 19.8402 129.169 18.4077 129.169 16.5455C129.169 15.1846 129.599 14.1102 130.529 13.3223C131.459 12.4628 132.676 12.1047 134.179 12.1047H139.76ZM136.397 14.8981H134.322C133.32 14.8981 132.604 15.4711 132.604 16.6171C132.604 17.6915 133.32 18.3361 134.322 18.3361H136.397V14.8981Z" fill="white"/>
<path d="M168.671 9.5978V0.286501C169.244 0.143251 169.816 0.143251 170.389 0.286501V11.0303H156.792V0.286501C157.365 0.143251 157.937 0.143251 158.51 0.286501V9.5978H162.732V0.286501C163.304 0.143251 163.877 0.143251 164.449 0.286501V9.5978H168.671Z" fill="white"/>
<path d="M176.472 5.51515L181.624 11.0303C181.409 11.1019 181.052 11.1019 180.622 11.1019C180.193 11.1019 179.835 11.1019 179.62 11.0303L174.683 5.73003V11.0303C174.11 11.1736 173.538 11.1736 172.965 11.0303V0.286501C173.538 0.143251 174.11 0.143251 174.683 0.286501V5.22865L179.334 0.286501C179.549 0.214876 179.907 0.214876 180.336 0.214876C180.765 0.214876 181.123 0.214876 181.338 0.286501L176.472 5.51515Z" fill="white"/>
<path d="M187.635 0C189.281 0 190.641 0.573003 191.714 1.64738C192.788 2.72176 193.289 4.08264 193.289 5.6584C193.289 7.23416 192.788 8.59504 191.714 9.66942C190.641 10.7438 189.281 11.3168 187.635 11.3168C185.989 11.3168 184.63 10.7438 183.556 9.66942C182.483 8.59504 181.982 7.23416 181.982 5.6584C181.982 4.08264 182.483 2.72176 183.556 1.64738C184.63 0.573003 185.989 0 187.635 0ZM187.635 1.43251C186.49 1.43251 185.56 1.86226 184.844 2.65014C184.129 3.43802 183.699 4.44077 183.699 5.6584C183.699 6.87603 184.057 7.87879 184.844 8.66667C185.56 9.45455 186.562 9.81267 187.635 9.81267C188.78 9.81267 189.711 9.38292 190.426 8.66667C191.142 7.87879 191.571 6.87603 191.571 5.6584C191.571 4.44077 191.213 3.43802 190.426 2.65014C189.711 1.79063 188.78 1.43251 187.635 1.43251Z" fill="white"/>
<path d="M204.238 0.214876V10.9587C203.665 11.1019 203.093 11.1019 202.52 10.9587V1.64738H198.513L197.869 7.95041C197.654 10.1708 196.724 11.2452 195.006 11.2452C194.648 11.2452 194.362 11.2452 194.147 11.1019C194.076 10.6006 194.076 10.1708 194.147 9.66942C194.291 9.66942 194.434 9.74105 194.577 9.74105C195.507 9.74105 196.008 9.23967 196.151 7.80716L196.938 0.214876H204.238Z" fill="white"/>
<path d="M216.475 11.0303C215.902 11.1736 215.33 11.1736 214.686 11.0303L213.612 8.30854H208.961L207.887 11.0303C207.315 11.1736 206.742 11.1736 206.098 11.0303L210.535 0.286501C210.965 0.214876 211.465 0.214876 211.966 0.286501L216.475 11.0303ZM209.462 6.87603H213.04L211.251 2.43526L209.462 6.87603Z" fill="white"/>
<path d="M158.438 18.9807H160.728C161.945 18.9807 162.947 19.2672 163.591 19.9118C164.306 20.5565 164.664 21.3444 164.664 22.3471C164.664 23.2782 164.306 24.1377 163.591 24.7824C162.875 25.427 161.945 25.7135 160.728 25.7135H156.721V14.9697H163.662C163.734 15.4711 163.734 15.9008 163.662 16.4022H158.438V18.9807ZM158.51 24.281H160.8C162.231 24.281 163.018 23.4215 163.018 22.3471C163.018 21.2011 162.159 20.4132 160.8 20.4132H158.51V24.281Z" fill="white"/>
<path d="M175.971 25.7135C175.398 25.8568 174.826 25.8568 174.253 25.7135V17.7631L168.027 25.7135C167.598 25.7851 167.097 25.7851 166.668 25.7135V14.9697C167.24 14.8264 167.813 14.8264 168.385 14.9697V22.9201L174.611 14.9697C175.04 14.8981 175.541 14.8981 175.971 14.9697V25.7135Z" fill="white"/>
<path d="M185.703 22.8485C185.703 23.7796 185.345 24.5675 184.558 25.1405C183.843 25.7135 182.841 26 181.696 26C180.336 26 179.119 25.7135 178.189 25.0689C178.118 24.9256 178.118 24.6391 178.118 24.281C178.118 23.8512 178.118 23.6364 178.189 23.4931C179.263 24.2094 180.408 24.5675 181.624 24.5675C182.984 24.5675 183.986 23.8512 183.986 22.6336C183.986 21.6309 183.342 20.9146 181.982 20.9146H180.193C180.05 20.4848 180.05 19.9835 180.193 19.5537H181.982C183.055 19.5537 183.771 18.8375 183.771 17.8347C183.771 16.832 182.984 16.1157 181.767 16.1157C180.622 16.1157 179.549 16.4738 178.475 17.1901C178.404 17.1185 178.404 16.832 178.404 16.4022C178.404 15.9725 178.475 15.686 178.475 15.6143C179.406 14.9697 180.551 14.6832 181.839 14.6832C182.984 14.6832 183.843 14.9697 184.487 15.5427C185.131 16.1157 185.489 16.7603 185.489 17.6198C185.489 18.7658 184.844 19.697 183.843 20.1983C185.059 20.5565 185.703 21.5592 185.703 22.8485Z" fill="white"/>
<path d="M195.364 19.5537V14.9697C195.937 14.8264 196.509 14.8264 197.082 14.9697V25.7135C196.509 25.8568 195.937 25.8568 195.364 25.7135V20.9146H189.424V25.7135C188.852 25.8568 188.351 25.8568 187.707 25.7135V14.9697C188.279 14.8264 188.852 14.8264 189.424 14.9697V19.5537H195.364Z" fill="white"/>
<path d="M201.375 24.281H207.029C207.172 24.7824 207.172 25.2121 207.029 25.7135H199.729V14.9697H207.029C207.172 15.4711 207.172 15.9008 207.029 16.4022H201.375V19.5537H206.456C206.528 20.0551 206.528 20.4848 206.456 20.9862H201.375V24.281Z" fill="white"/>
<path d="M217.906 23.4215C217.978 23.4931 217.978 23.7796 217.978 24.2094C217.978 24.6391 217.978 24.9256 217.906 24.9972C216.976 25.6419 215.831 25.9284 214.4 25.9284C212.682 25.9284 211.251 25.3554 210.177 24.281C209.104 23.2066 208.531 21.8457 208.531 20.27C208.531 18.6942 209.104 17.3333 210.177 16.259C211.251 15.1846 212.682 14.6116 214.4 14.6116C215.759 14.6116 216.904 14.8981 217.906 15.5427C217.978 15.686 217.978 15.9725 217.978 16.3306C217.978 16.7603 217.978 16.9752 217.906 17.1185C216.833 16.4022 215.688 16.0441 214.543 16.0441C213.326 16.0441 212.324 16.4738 211.537 17.2617C210.75 18.0496 210.32 19.0523 210.32 20.27C210.32 21.4876 210.75 22.4904 211.537 23.2782C212.324 24.0661 213.326 24.4242 214.543 24.4242C215.688 24.5675 216.833 24.2094 217.906 23.4215Z" fill="white"/>
<path d="M230 25.7135C229.428 25.8568 228.855 25.8568 228.211 25.7135L227.138 22.9917H222.486L221.413 25.7135C220.84 25.8568 220.268 25.8568 219.624 25.7135L224.06 14.9697C224.49 14.8981 224.991 14.8981 225.492 14.9697L230 25.7135ZM222.987 21.5592H226.565L224.776 17.1185L222.987 21.5592Z" fill="white"/>
</svg>
