<svg width="118" height="25" viewBox="0 0 118 25" fill="none" xmlns="http://www.w3.org/2000/svg">
<g clip-path="url(#clip0)">
<path d="M81.9757 5.17139H84.1152V5.75827H82.6795V9.95026H82.0039V5.17139H81.9757Z" fill="white"/>
<path d="M83.9445 8.21729C83.9445 6.9597 84.5075 6.42871 85.3239 6.42871C86.1121 6.42871 86.6188 6.9597 86.6188 8.21729V8.41292H84.6201C84.6482 9.19542 84.9016 9.47489 85.5209 9.47489C85.9713 9.47489 86.281 9.30721 86.4217 9.22337V9.81025C86.2247 9.89409 85.915 10.0059 85.4646 10.0059C84.5075 10.0059 83.9445 9.47489 83.9445 8.21729ZM84.6201 7.88193H85.9713C85.9713 7.18327 85.6898 6.9597 85.3239 6.9597C84.9579 6.9597 84.6764 7.18327 84.6201 7.88193Z" fill="white"/>
<path d="M87.3234 6.48389H87.9708V7.90916H89.2939V6.48389H89.9414V9.94927H89.2939V8.4122H87.9708V9.94927H87.3234V6.48389Z" fill="white"/>
<path d="M90.6163 8.21729C90.6163 6.9597 91.1794 6.42871 91.9957 6.42871C92.784 6.42871 93.2907 6.9597 93.2907 8.21729V8.41292H91.292C91.3201 9.19542 91.5735 9.47489 92.1928 9.47489C92.6432 9.47489 92.9529 9.30721 93.0936 9.22337V9.81025C92.8966 9.89409 92.5869 10.0059 92.1365 10.0059C91.1794 10.0059 90.6163 9.47489 90.6163 8.21729ZM91.2638 7.88193H92.6151C92.6151 7.18327 92.3336 6.9597 91.9676 6.9597C91.6298 6.9597 91.3201 7.18327 91.2638 7.88193Z" fill="white"/>
<path d="M93.9679 6.4846H94.5872V6.9597C94.8124 6.62434 95.1221 6.42871 95.4881 6.42871C96.2481 6.42871 96.7548 6.93175 96.7548 8.21729C96.7548 9.47489 96.1918 10.0059 95.4599 10.0059C95.0939 10.0059 94.7843 9.81025 94.6154 9.50284V11.3753H93.9679V6.4846ZM96.1074 8.21729C96.1074 7.26711 95.7977 6.9597 95.4036 6.9597C95.0095 6.9597 94.6154 7.323 94.6154 8.21729C94.6154 9.11158 94.9813 9.47489 95.3473 9.47489C95.7696 9.47489 96.1074 9.13953 96.1074 8.21729Z" fill="white"/>
<path d="M97.2617 8.9992C97.2617 8.21669 97.7403 7.79749 99.0352 7.79749H99.2041V7.65776C99.2041 7.12677 99.0352 6.95909 98.6411 6.95909C98.2189 6.95909 97.9936 7.07088 97.5714 7.3224V6.73552C97.7966 6.62373 98.1626 6.45605 98.6411 6.45605C99.4857 6.45605 99.8516 6.79141 99.8516 7.65776V9.94938H99.2323V9.47429C99.0352 9.7817 98.7537 10.0053 98.2752 10.0053C97.6558 10.0053 97.2617 9.64197 97.2617 8.9992ZM99.2323 8.58V8.27258H99.0634C98.247 8.27258 97.9655 8.55205 97.9655 8.9992C97.9655 9.30661 98.1344 9.47429 98.4441 9.47429C98.8945 9.47429 99.2323 9.13893 99.2323 8.58Z" fill="white"/>
<path d="M100.304 9.97721V9.44623C100.36 9.47417 100.445 9.47417 100.501 9.47417C100.754 9.47417 100.895 9.33444 100.895 7.5738V6.48389H103.063V9.94926H102.415V6.98693H101.514V7.54586C101.514 9.69775 101.233 9.97721 100.67 9.97721C100.501 10.0052 100.416 10.0052 100.304 9.97721Z" fill="white"/>
<path d="M103.877 6.48389H104.525V7.76943H105.031C105.876 7.76943 106.27 8.18863 106.27 8.85935C106.27 9.53007 105.848 9.94927 105.031 9.94927H103.877V6.48389ZM105.031 8.30042H104.525V9.44623H105.031C105.397 9.44623 105.594 9.2506 105.594 8.88729C105.594 8.49604 105.369 8.30042 105.031 8.30042Z" fill="white"/>
<path d="M106.831 6.48389H107.479V7.90916H108.802V6.48389H109.449V9.94927H108.802V8.4122H107.479V9.94927H106.831V6.48389Z" fill="white"/>
<path d="M110.269 6.48389H110.916V7.76943H111.423C112.267 7.76943 112.662 8.18863 112.662 8.85935C112.662 9.53007 112.239 9.94927 111.423 9.94927H110.269V6.48389ZM111.423 8.30042H110.916V9.44623H111.423C111.789 9.44623 111.986 9.2506 111.986 8.88729C111.986 8.49604 111.761 8.30042 111.423 8.30042ZM113.196 6.48389H113.844V9.94927H113.196V6.48389Z" fill="white"/>
<path d="M114.659 6.48424H115.306V9.13917L116.432 6.48424H117.333V9.94962H116.686V7.2947L115.56 9.94962H114.659V6.48424ZM115.053 5.14281L115.588 5.08691C115.616 5.39433 115.757 5.47817 115.982 5.47817C116.235 5.47817 116.348 5.39433 116.376 5.08691L116.911 5.14281C116.883 5.75763 116.404 5.92531 115.982 5.92531C115.56 5.95326 115.109 5.78558 115.053 5.14281Z" fill="white"/>
<path d="M81.8351 14.4214H84.4531V17.8868H83.8057V14.9244H82.4826V17.8868H81.8351V14.4214Z" fill="white"/>
<path d="M85.0732 16.9362C85.0732 16.1537 85.5518 15.7345 86.8468 15.7345H87.0157V15.5948C87.0157 15.0638 86.8468 14.8961 86.4526 14.8961C86.0304 14.8961 85.8052 15.0079 85.3829 15.2594V14.6725C85.6081 14.5607 85.9741 14.3931 86.4526 14.3931C87.2972 14.3931 87.6631 14.7284 87.6631 15.5948V17.9143H87.0438V17.4392C86.8468 17.7467 86.5652 17.9702 86.0867 17.9702C85.4392 17.9423 85.0732 17.579 85.0732 16.9362ZM87.0157 16.517V16.2096H86.8468C86.0304 16.2096 85.7489 16.4891 85.7489 16.9362C85.7489 17.2436 85.9178 17.4113 86.2274 17.4113C86.6778 17.4113 87.0157 17.0759 87.0157 16.517Z" fill="white"/>
<path d="M88.5078 14.4211H89.1271V14.8962C89.3523 14.5609 89.662 14.3652 90.028 14.3652C90.788 14.3652 91.2948 14.8683 91.2948 16.1538C91.2948 17.4114 90.7317 17.9424 89.9998 17.9424C89.6339 17.9424 89.3242 17.7468 89.1553 17.4394V19.3118H88.5078V14.4211ZM90.6191 16.1538C90.6191 15.2036 90.3095 14.8962 89.9154 14.8962C89.5212 14.8962 89.1271 15.2595 89.1271 16.1538C89.1271 17.0481 89.4931 17.4114 89.8591 17.4114C90.2813 17.4114 90.6191 17.0761 90.6191 16.1538Z" fill="white"/>
<path d="M92.5051 14.9244H91.6042V14.4214H94.0815V14.9524H93.1807V17.9147H92.5332V14.9244H92.5051Z" fill="white"/>
<path d="M94.5616 14.4214H95.2091V15.8187H96.5322V14.4214H97.1797V17.8868H96.5322V16.3497H95.2091V17.8868H94.5616V14.4214Z" fill="white"/>
<path d="M97.8507 16.1545C97.8507 14.8969 98.4137 14.3659 99.2301 14.3659C100.018 14.3659 100.525 14.8969 100.525 16.1545V16.3501H98.5263C98.5545 17.1326 98.8078 17.4121 99.4272 17.4121C99.8776 17.4121 100.187 17.2444 100.328 17.1605V17.7474C100.131 17.8313 99.8213 17.943 99.3709 17.943C98.4137 17.943 97.8507 17.4121 97.8507 16.1545ZM98.3011 13.1362H98.9767V13.779H98.3011V13.1362ZM98.5263 15.8191H99.8776C99.8776 15.1204 99.5961 14.8969 99.2301 14.8969C98.8641 14.8969 98.5826 15.1204 98.5263 15.8191ZM99.399 13.1362H100.075V13.779H99.399V13.1362Z" fill="white"/>
<path d="M101.23 14.4211H101.849V14.8962C102.074 14.5609 102.384 14.3652 102.75 14.3652C103.51 14.3652 104.017 14.8683 104.017 16.1538C104.017 17.4114 103.454 17.9424 102.722 17.9424C102.356 17.9424 102.046 17.7468 101.877 17.4394V19.3118H101.23V14.4211ZM103.369 16.1538C103.369 15.2036 103.059 14.8962 102.665 14.8962C102.271 14.8962 101.877 15.2595 101.877 16.1538C101.877 17.0481 102.243 17.4114 102.609 17.4114C103.003 17.4114 103.369 17.0761 103.369 16.1538Z" fill="white"/>
<path d="M19.5931 3.60572H3.49072L4.64491 0.447754H20.7473L19.5931 3.60572ZM19.0019 5.19868H2.89955L1.74536 8.35664H17.8477L19.0019 5.19868ZM17.2566 9.9496H1.15419L0 13.1355H16.1024L17.2566 9.9496Z" fill="#00A9FE"/>
<path d="M57.963 21.0165H60.8344C61.9322 21.0165 62.5797 20.765 63.0583 20.1502C63.2835 19.8427 63.6213 19.3397 63.6213 18.3336C63.6213 17.3555 63.2835 16.6568 62.636 16.1538C62.2419 15.8464 61.707 15.7066 60.8062 15.7066H57.963V21.0165ZM54.1344 24.2024V5.19873H66.6053L65.5074 8.38464H57.963V12.6046H61.0314C63.5087 12.6046 64.8036 13.1915 65.7045 13.946C66.4083 14.5329 67.5906 15.8464 67.5906 18.4454C67.5906 21.0165 66.352 22.4138 65.3385 23.1404C64.1562 23.9509 62.8894 24.2024 60.3276 24.2024H54.1344ZM43.0992 24.2024V8.38464H37.5535V5.19873H52.9239L51.826 8.38464H46.9278V24.2024H43.0992ZM27.7569 12.8002H29.9246C30.6002 12.8002 30.9098 12.8002 31.2477 12.6884C32.1485 12.4369 32.7115 11.6264 32.7115 10.5365C32.7115 9.25099 32.1203 8.69205 31.2477 8.44054C30.8817 8.32875 30.5157 8.3008 29.7838 8.3008H27.7569V12.8002ZM27.7851 16.0979V21.1003H30.4313C31.2195 21.1003 31.9514 21.0444 32.4863 20.5414C33.0212 20.0384 33.2464 19.4235 33.2464 18.6131C33.2464 17.9983 33.0775 17.3834 32.7397 16.9642C32.1766 16.2656 31.4729 16.0979 30.2905 16.0979H27.7851ZM33.922 14.0857V14.1416C34.6539 14.3932 35.3577 14.8683 35.7237 15.1477C36.8497 16.07 37.3564 17.2996 37.3564 18.8646C37.3564 21.4636 35.977 23.3361 33.6686 23.9229C32.9649 24.1186 32.2329 24.1745 30.8817 24.1745H23.9565V5.19873H30.0935C31.3603 5.19873 32.2048 5.25462 32.9649 5.45025C35.1888 6.03713 36.6526 7.54624 36.6526 9.94965C36.6526 11.2352 36.2022 12.3251 35.414 13.0517C35.0762 13.3871 34.6258 13.7783 33.922 14.0857Z" fill="white"/>
</g>
<defs>
<clipPath id="clip0">
<rect width="117.333" height="23.7546" fill="white" transform="translate(0 0.447754)"/>
</clipPath>
</defs>
</svg>
