<svg width="195" height="32" viewBox="0 0 195 32" fill="none" xmlns="http://www.w3.org/2000/svg">
<path d="M9.23942 15.9593L19.9068 26.571V20.8891L14.9511 15.9593L19.9068 11.0295V5.34762L9.23942 15.9593Z" fill="white"/>
<path fill-rule="evenodd" clip-rule="evenodd" d="M0 31.9186V0H32.086V31.9186H0ZM4.03175 4.01071V27.9079H28.1382V4.01071H4.03175Z" fill="white"/>
<path d="M43.8727 14.0865C47.5356 14.0865 49.3363 12.2137 49.3363 9.73027C49.3363 4.66157 41.499 6.10686 41.499 3.96946C41.499 3.15521 42.1947 2.62595 43.4225 2.62595C44.814 2.62595 46.2873 3.09414 47.3923 4.11195L49.0089 1.95419C47.6584 0.712458 45.8576 0.0610585 43.6885 0.0610585C40.4758 0.0610585 38.5114 1.93383 38.5114 4.19338C38.5114 9.30279 46.3692 7.65394 46.3692 10.0153C46.3692 10.8092 45.6121 11.5216 43.9955 11.5216C42.1129 11.5216 40.6191 10.6667 39.6573 9.6692L38.0612 11.9287C39.3504 13.2112 41.233 14.0865 43.8727 14.0865Z" fill="white"/>
<path d="M57.9842 13.8422V8.28498L63.2023 0.264621H59.9077L56.5313 5.69974L53.1549 0.264621H49.8399L55.0784 8.28498V13.8422H57.9842Z" fill="white"/>
<path d="M76.6778 13.8422V0.264621H73.772V8.79389L67.449 0.264621H64.4614V13.8422H67.3671V4.98727L73.8744 13.8422H76.6778Z" fill="white"/>
<path d="M89.0275 13.8422V11.2977H82.2747V8.20356H88.8843V5.65903H82.2747V2.80915H89.0275V0.264621H79.369V13.8422H89.0275Z" fill="white"/>
<path d="M102.37 13.8422L99.2797 8.67175C100.753 8.32569 102.288 7.02289 102.288 4.64121C102.288 2.11704 100.528 0.264621 97.6835 0.264621H91.2991V13.8422H94.2048V9.01781H96.333L99.0136 13.8422H102.37ZM97.2743 6.47328H94.2048V2.80915H97.2743C98.4202 2.80915 99.3001 3.50126 99.3001 4.62086C99.3001 5.78116 98.4202 6.47328 97.2743 6.47328Z" fill="white"/>
<path d="M110.812 14.0865C115.171 14.0865 117.811 11.1552 117.811 6.31043H110.362V8.85496H114.618C114.189 10.2799 113.022 11.5216 111.078 11.5216C108.582 11.5216 106.781 9.62849 106.781 7.06361C106.781 4.49872 108.582 2.60559 111.078 2.60559C112.511 2.60559 113.677 3.41984 114.311 4.37658L116.706 3.07378C115.682 1.46564 113.902 0.0407025 111.078 0.0407025C107.067 0.0407025 103.793 2.76844 103.793 7.06361C103.793 11.3384 107.067 14.0865 110.812 14.0865Z" fill="white"/>
<path d="M125.488 13.8422V8.28498L130.706 0.264621H127.412L124.035 5.69974L120.659 0.264621H117.344L122.582 8.28498V13.8422H125.488Z" fill="white"/>
<path d="M52.5286 31.7557L56.4165 18.1781H53.1629L50.7687 27.9898L48.1904 18.1781H45.919L43.3202 27.9898L40.926 18.1781H37.6724L41.5808 31.7557H44.6708L47.0445 22.4326L49.4386 31.7557H52.5286Z" fill="white"/>
<path d="M63.874 32C67.9871 32 70.9951 29.0687 70.9951 24.9771C70.9951 20.8855 67.9871 17.9542 63.874 17.9542C59.7405 17.9542 56.7324 20.8855 56.7324 24.9771C56.7324 29.0687 59.7405 32 63.874 32ZM63.874 29.4351C61.3366 29.4351 59.72 27.5013 59.72 24.9771C59.72 22.4326 61.3366 20.5191 63.874 20.5191C66.391 20.5191 68.0075 22.4326 68.0075 24.9771C68.0075 27.5013 66.391 29.4351 63.874 29.4351Z" fill="white"/>
<path d="M87.829 31.7557V18.1781H83.7364L80.4214 26.6667L77.1064 18.1781H73.0342V31.7557H75.94V21.9644L79.787 31.7557H81.0557L84.9028 21.9644V31.7557H87.829Z" fill="white"/>
<path d="M103.268 31.7557L98.0087 18.1781H94.3663L89.1073 31.7557H92.4018L93.2613 29.4555H99.1137L99.9732 31.7557H103.268ZM98.3157 26.9109H94.0593L96.1875 21.0687L98.3157 26.9109Z" fill="white"/>
<path d="M116.745 31.7557V18.1781H113.839V26.7074L107.516 18.1781H104.528V31.7557H107.434V22.9008L113.941 31.7557H116.745Z" fill="white"/>
<path d="M127.597 31.7557V26.117H134.207V23.5725H127.597V20.7226H134.35V18.1781H124.691V31.7557H127.597Z" fill="white"/>
<path d="M142.868 32C146.981 32 149.99 29.0687 149.99 24.9771C149.99 20.8855 146.981 17.9542 142.868 17.9542C138.735 17.9542 135.727 20.8855 135.727 24.9771C135.727 29.0687 138.735 32 142.868 32ZM142.868 29.4351C140.331 29.4351 138.714 27.5013 138.714 24.9771C138.714 22.4326 140.331 20.5191 142.868 20.5191C145.385 20.5191 147.002 22.4326 147.002 24.9771C147.002 27.5013 145.385 29.4351 142.868 29.4351Z" fill="white"/>
<path d="M163.099 31.7557L160.009 26.5852C161.483 26.2392 163.017 24.9364 163.017 22.5547C163.017 20.0305 161.257 18.1781 158.413 18.1781H152.029V31.7557H154.934V26.9313H157.063L159.743 31.7557H163.099ZM158.004 24.3868H154.934V20.7226H158.004C159.15 20.7226 160.03 21.4148 160.03 22.5343C160.03 23.6947 159.15 24.3868 158.004 24.3868Z" fill="white"/>
<path d="M171.337 32C175.491 32 177.496 29.6794 177.496 26.3206V18.1781H174.529V26.2392C174.529 28.1323 173.445 29.4351 171.337 29.4351C169.229 29.4351 168.124 28.1323 168.124 26.2392V18.1781H165.178V26.3206C165.178 29.6794 167.183 32 171.337 32Z" fill="white"/>
<path d="M195 31.7557V18.1781H190.907L187.592 26.6667L184.277 18.1781H180.205V31.7557H183.111V21.9644L186.958 31.7557H188.227L192.074 21.9644V31.7557H195Z" fill="white"/>
</svg>
