<svg width="15" height="14" viewBox="0 0 15 14" fill="none" xmlns="http://www.w3.org/2000/svg">
<path d="M4.9561 8.92655C4.89323 8.86338 4.81506 8.8176 4.72922 8.79365C4.64337 8.76971 4.55279 8.76842 4.4663 8.78992L4.20852 8.85437C2.92378 9.17513 1.80502 9.96387 1.07127 11.0662C1.01192 11.1548 0.981534 11.2597 0.984305 11.3664C0.987075 11.473 1.02287 11.5762 1.08674 11.6616L1.28008 11.9194C1.74956 12.5424 2.35697 13.0482 3.05469 13.397C3.75241 13.7459 4.52146 13.9284 5.30153 13.9302C5.96195 13.9319 6.61617 13.8028 7.22634 13.5501C7.83652 13.2975 8.39055 12.9263 8.85639 12.4582L12.6937 8.62091C13.1618 8.15508 13.5329 7.60105 13.7856 6.99087C14.0383 6.38069 14.1674 5.72647 14.1656 5.06605C14.1638 4.28598 13.9814 3.51693 13.6325 2.81921C13.2836 2.12149 12.7779 1.51408 12.1549 1.0446L11.8971 0.851264C11.8117 0.787388 11.7085 0.751597 11.6018 0.748827C11.4952 0.746056 11.3903 0.776443 11.3016 0.835796C10.1993 1.56954 9.41061 2.6883 9.08984 3.97304L9.0254 4.23083C9.0039 4.31731 9.00518 4.4079 9.02913 4.49374C9.05307 4.57958 9.09886 4.65775 9.16203 4.72062L9.84773 5.40891C9.9787 5.54033 10.0522 5.71831 10.0522 5.90386C10.0522 6.0894 9.9787 6.26738 9.84773 6.3988L6.63428 9.61225C6.50285 9.74323 6.32488 9.81677 6.13933 9.81677C5.95379 9.81677 5.77581 9.74323 5.64438 9.61225L4.9561 8.92655Z" fill="white"/>
</svg>
